<svg width="470" height="530" viewBox="0 0 470 530" fill="none" xmlns="http://www.w3.org/2000/svg">
    <g clip-path="url(#clip0_1634_7263)">
        <path d="M129.031 402.941L129.901 403.321L130.641 403.651L132.061 404.321C132.991 404.771 133.891 405.241 134.781 405.711C136.561 406.661 138.301 407.681 140.001 408.741C143.401 410.861 146.661 413.201 149.781 415.741C156.021 420.811 161.661 426.781 166.361 433.561C168.701 436.951 170.811 440.531 172.601 444.291C173.481 446.181 174.321 448.081 175.061 450.031C175.461 450.991 175.771 451.991 176.121 452.981L176.621 454.461L177.011 455.541C179.031 461.281 182.101 466.331 186.221 470.391C190.311 474.471 195.411 477.601 201.111 479.901C203.951 481.061 206.961 481.981 210.071 482.721C213.171 483.461 216.361 484.041 219.621 484.421C232.681 485.991 246.491 485.091 260.191 483.021L260.231 483.011C267.061 481.981 273.431 486.681 274.471 493.501C275.501 500.331 270.801 506.701 263.981 507.741C263.761 507.771 263.501 507.801 263.281 507.831C247.931 509.281 232.181 509.551 216.211 506.751C212.231 506.071 208.231 505.111 204.271 503.931C200.311 502.751 196.361 501.311 192.511 499.491C184.821 495.901 177.421 490.841 171.491 484.201C165.511 477.601 161.291 469.511 158.921 461.301L158.141 458.631C157.921 457.871 157.731 457.111 157.461 456.361C156.981 454.851 156.411 453.381 155.821 451.911C154.601 448.991 153.121 446.161 151.441 443.431C148.061 437.981 143.801 432.951 138.881 428.531C136.431 426.321 133.821 424.241 131.101 422.351C129.741 421.401 128.351 420.501 126.941 419.651C126.241 419.231 125.531 418.821 124.831 418.431L123.791 417.871L122.901 417.411L122.381 417.141C118.521 415.171 116.991 410.451 118.961 406.591C120.841 402.901 125.271 401.351 129.031 402.941Z" fill="url(#paint0_linear_1634_7263)"/>
        <path d="M160.04 296.7C163.79 295.68 177.74 280.14 187.62 271.51C191.36 267.1 195.45 229.64 196.81 216.7C197.14 213.53 196.92 210.68 196.35 208.24L207.7 192.53L201.88 180.8L193.55 181.96C193.55 181.96 195.18 180.43 196.92 178.82C198.54 177.32 198.98 174.94 198 172.96V172.95L185.23 180.61C185.23 180.61 186.44 194.22 186.92 199.84C183.31 206.07 171.14 255.66 167.53 260.13C163.79 264.76 148.36 273.13 147.45 274.56C139.62 286.83 156.3 297.72 160.04 296.7Z" fill="url(#paint1_linear_1634_7263)"/>
        <path d="M37.2701 354.631C37.2701 354.631 33.2101 351.681 39.2701 335.261C45.0101 319.701 48.76 312.221 49.68 310.521C49.82 310.271 50.0401 310.091 50.3101 310.001L52.17 309.431L63.6501 344.371C63.6501 344.361 39.2801 358.011 37.2701 354.631Z" fill="#008037"/>
        <path d="M114.34 278.41L106.17 330.49L66.9199 295L114.34 278.41Z" fill="#FF6C00"/>
        <path d="M70.5 303.511C66.74 305.891 36.46 315.421 36.46 315.421L12.63 324.951C12.63 324.951 18.76 335.751 60.46 342.311C97.73 348.181 70.5 303.511 70.5 303.511Z" fill="url(#paint2_linear_1634_7263)"/>
        <path d="M94.44 408.35L99.34 405.54C95.79 407.02 94.53 408.26 94.44 408.35Z" fill="#682200"/>
        <path d="M95.47 413.76L126.45 407.49L159.24 401.43C155.07 400.75 150.46 400.31 145.38 400.19C118.87 399.55 105.57 402.93 99.34 405.54L94.44 408.35L95.47 413.76Z" fill="#47001A"/>
        <path d="M94.43 408.361L102.1 448.191C102.1 448.191 127.87 448.191 139.11 442.571C150.34 436.961 196.97 424.191 196.97 424.191C196.97 424.191 189.73 406.411 159.24 401.431L126.45 407.491L94.43 408.361Z" fill="#680025"/>
        <path d="M37.27 354.63C37.27 354.63 55.17 363.9 56.53 366.63C57 367.58 58.42 367.8 60.07 367.68C62.82 367.49 66.22 366.36 66.93 366.12C67.02 366.09 67.07 366.07 67.07 366.07V366.18C67.17 368.98 67.34 371.63 67.58 374.13C67.61 374.52 67.65 374.9 67.69 375.28C67.7 375.36 67.71 375.45 67.72 375.53C67.93 377.58 68.19 379.53 68.49 381.38C68.57 381.91 68.66 382.43 68.75 382.94C68.77 383.06 68.79 383.18 68.82 383.3C68.88 383.65 68.94 384 69.01 384.35C69.06 384.63 69.12 384.91 69.18 385.19C69.29 385.78 69.42 386.35 69.55 386.92C70.51 391.2 71.69 394.88 73.03 398.06C73.21 398.49 73.39 398.91 73.59 399.32C76.55 405.88 80.16 410.12 83.66 412.87C83.83 413 84 413.13 84.17 413.25C86.37 414.9 88.51 415.96 90.4 416.64C90.95 416.84 91.48 417.01 91.98 417.15C92.33 417.25 92.67 417.33 92.99 417.41C93.19 417.45 93.38 417.49 93.57 417.53C93.76 417.57 93.94 417.6 94.12 417.63H94.16C94.18 417.64 94.19 417.64 94.21 417.64C94.56 417.7 94.89 417.75 95.18 417.77C95.41 417.8 95.61 417.82 95.8 417.84C95.8 417.84 95.81 417.84 95.82 417.84H95.83C96.7 417.9 97.21 417.86 97.21 417.86L98.16 416.88L101.67 413.26L113.71 400.82L116.17 398.28L116.47 397.97L117.98 396.41C117.98 396.41 118.4 396.15 119.09 395.68C119.89 395.14 121.05 394.31 122.35 393.25C123.36 392.44 124.46 391.49 125.54 390.42C128.17 387.85 130.72 384.64 131.77 381.17C131.77 381.16 131.77 381.16 131.77 381.16C132.24 379.58 132.41 377.96 132.12 376.32C132.12 376.27 132.11 376.21 132.1 376.16C131.28 371.77 122.94 356.67 115.4 343.65C114.38 341.88 113.38 340.16 112.41 338.5C112.31 338.34 112.22 338.18 112.13 338.03C111.82 337.51 111.52 336.99 111.22 336.49C111.04 336.18 110.87 335.88 110.69 335.58C110.53 335.31 110.37 335.04 110.22 334.78C106.1 327.8 103.05 322.8 103.05 322.8L97.1 316.12L95.77 315.12H95.76L92.2 312.47L91.88 312.23L89.61 310.54L88.59 309.77H88.58L85.55 307.51L82.65 305.35L82.14 304.97L77.64 301.61L76.06 302.09L75.46 302.28L66.7 304.96L65.77 305.25L65.16 305.44L64.32 305.69L58.2 307.57L56.92 307.96H56.91L54.94 308.57L52.17 309.42L49.89 310.12C50.79 310.39 51.56 310.85 52.21 311.49C52.98 312.22 53.58 313.18 54.04 314.33C54.98 316.67 55.31 319.77 55.14 323.21V323.22C55.05 325.13 54.8 327.14 54.43 329.2C54.42 329.25 54.41 329.28 54.41 329.33C54.41 329.33 54.41 329.33 54.41 329.34C53.87 332.25 53.07 335.24 52.07 338.1C51.44 339.91 50.73 341.67 49.95 343.33C49.33 344.65 48.67 345.9 47.98 347.06C47.81 347.35 47.64 347.63 47.46 347.91C47.02 348.61 46.56 349.28 46.1 349.9C45.97 350.07 45.84 350.24 45.7 350.41C44.57 351.85 43.38 353.03 42.15 353.87C40.3 355.13 39.19 355.21 37.27 354.63Z" fill="#2AA761"/>
        <path d="M70.8601 367.971C70.7201 367.911 69.2001 367.161 67.0701 366.181C67.1701 368.981 67.3401 371.631 67.5801 374.131C67.6101 374.521 67.6501 374.901 67.6901 375.281C67.7001 375.361 67.7101 375.451 67.7201 375.531C69.4701 375.681 71.1801 375.711 72.7101 375.561C73.1301 375.531 73.5401 375.471 73.9301 375.411C74.8701 375.251 75.7201 375.011 76.4501 374.681C77.3401 374.281 78.0601 373.751 78.5501 373.051C79.0801 372.311 78.6601 371.111 77.7101 369.731C74.6501 365.301 66.0501 358.981 64.7301 359.641C63.0401 360.481 70.5201 367.651 70.8601 367.971Z" fill="#36DDCD"/>
        <path d="M71.3601 373.55C70.9601 373.98 69.1001 374.01 67.5801 374.13C67.6101 374.52 67.6501 374.9 67.6901 375.28C69.1501 375.44 71.0801 375.54 72.7101 375.56C73.1001 375.57 73.4701 375.58 73.8101 375.57C74.9201 375.56 75.7501 375.5 75.8901 375.38C76.0201 375.27 76.22 375.02 76.45 374.68C77.22 373.59 78.3301 371.68 78.3301 371.68C78.3301 371.68 77.9201 371.12 77.3201 370.36C75.8301 368.46 73.1501 365.28 72.5101 366.06C71.6101 367.16 73.2201 370.04 72.8501 370.46C72.4801 370.87 67.7101 369.44 67.4301 370.55C67.1501 371.67 72.0401 372.81 71.3601 373.55Z" fill="#327CBF"/>
        <path d="M82.04 374.79C84.32 371.34 79 367.61 79 367.61C76.44 371.76 75.24 373.94 71.79 378.1C71.79 378.11 78.98 379.41 82.04 374.79Z" fill="#003951"/>
        <path d="M114.92 388.531C115.03 388.211 115.08 388.061 115.19 387.741C103.04 383.731 91.02 379.251 79.33 374.061C79.16 374.291 79.08 374.401 78.91 374.631C90.66 379.871 102.72 384.441 114.92 388.531Z" fill="#003951"/>
        <path d="M106.63 384.991C106.5 384.881 106.43 384.831 106.3 384.721C106.23 384.671 100.22 378.871 97.8701 369.021C97.6201 369.121 97.5001 369.171 97.2501 369.271C99.3301 378.101 104.19 383.801 105.55 385.091C98.7001 390.671 86.8201 391.861 86.7001 391.871C86.6501 392.151 86.6201 392.291 86.5601 392.581C87.0801 392.531 99.2401 391.351 106.22 385.341C106.39 385.201 106.47 385.131 106.63 384.991Z" fill="#003951"/>
        <path d="M83.3701 390.68C83.3701 390.68 90.0801 390.14 89.8401 391.77C89.6001 393.4 82.2001 394.731 82.2001 394.731C82.7101 393.091 82.9401 392.28 83.3701 390.68Z" fill="#003951"/>
        <path d="M94.71 367.7C94.71 367.7 96.94 372.88 98.34 372.16C99.74 371.44 98 365.58 98 365.58C96.71 366.43 96.05 366.86 94.71 367.7Z" fill="#003951"/>
        <path d="M77.07 395.631C77.07 395.631 74.2 396.881 73.03 398.061C73.21 398.491 73.39 398.911 73.59 399.321C75.88 399.161 81.34 397.241 83.85 394.391C84.78 393.341 85.31 392.171 85.13 390.911C85.12 390.811 85.08 390.701 85.02 390.601C83.99 388.831 76.5 387.811 76.02 388.391C75.5 388.991 78.69 390.591 78.69 390.591C78.69 390.591 73.69 390.881 73.16 391.671C72.63 392.461 77.31 393.601 77.31 393.601C77.31 393.601 72.5 394.141 71.94 394.941C71.38 395.741 77.07 395.631 77.07 395.631Z" fill="#5C00CC"/>
        <path d="M96.53 370.431C94.62 371.281 88.99 367.271 89.29 366.681C89.59 366.091 92.77 367.011 92.77 367.011C92.77 367.011 90.4 364.171 90.85 363.501C91.3 362.831 94.76 364.761 94.76 364.761C94.76 364.761 92.76 361.951 93.19 361.281C93.62 360.611 96.44 363.661 96.44 363.661C96.44 363.661 95.8 360.081 97.11 359.681C98.41 359.291 101.96 368.021 96.53 370.431Z" fill="#5C00CC"/>
        <path d="M97.17 382.02C95.18 381.03 92.36 381.52 90.03 383.12C92.32 384.27 95.47 383.96 98.03 382.22L97.17 382.02Z" fill="#003951"/>
        <path d="M92.4601 379.83C90.6301 378.67 89.3601 376.74 88.9301 374.54C89.8101 374.98 90.7801 375.28 91.6801 375.67C92.5801 376.06 93.4201 376.58 93.9501 377.39C94.4701 378.2 94.6401 379.35 94.1501 380.44L92.4601 379.83Z" fill="#003951"/>
        <path d="M110.64 336.5C110.81 336.55 111.01 336.54 111.22 336.49C111.04 336.18 110.87 335.88 110.69 335.58C110.44 336.08 110.38 336.43 110.64 336.5Z" fill="#327CBF"/>
        <path d="M122.35 393.25C123.36 392.44 124.46 391.49 125.54 390.42C123.83 390.64 122.4 391.39 122.35 393.25Z" fill="#F5F4BE"/>
        <path d="M131.05 382.52C131.22 382.01 131.47 381.57 131.77 381.17C131.77 381.16 131.77 381.16 131.77 381.16C132.24 379.58 132.41 377.96 132.12 376.32C130.93 377.94 130.45 380.42 131.05 382.52Z" fill="#003951"/>
        <path d="M104.27 408.22C103.46 406.71 102.64 405.24 102.12 403.56C101.6 401.87 101.4 399.93 101.83 397.94C102.26 395.94 103.4 393.89 104.94 392.79C106.58 394.03 107.36 396.48 107.35 399.24C107.34 401.98 106.08 405.59 104.27 408.22Z" fill="#36DDCD"/>
        <path d="M105.35 390.4C105.1 390.41 104.97 390.42 104.72 390.43C103.97 394.4 103.84 398.47 104.41 402.32C104.68 402.16 104.81 402.09 105.08 401.93C104.51 398.2 104.63 394.26 105.35 390.4Z" fill="#327CBF"/>
        <path d="M52.8101 343.841C54.8701 344.741 57.1201 335.541 57.1201 335.541C57.1201 335.541 60.0801 350.351 62.6101 350.751C65.1501 351.141 62.6801 336.221 62.6801 336.221C62.6801 336.221 69.2701 345.341 70.9901 345.391C72.2701 345.421 68.4401 334.511 63.0701 329.401H63.0601C61.2501 327.671 59.2601 326.611 57.2301 326.861C56.1601 327.001 55.2401 327.891 54.4801 329.211C54.4601 329.251 54.4401 329.291 54.4101 329.331C54.4101 329.331 54.4101 329.331 54.4101 329.341C53.8701 332.251 53.0701 335.241 52.0701 338.101C51.8001 341.041 52.0301 343.501 52.8101 343.841Z" fill="#36DDCD"/>
        <path d="M56.18 327.741C56.18 327.741 52.76 334.911 54.35 335.151C55.94 335.391 57.61 332.751 58.18 332.831C58.76 332.911 60.29 337.151 61.4 336.761C62.51 336.371 60.64 332.251 61.62 332.361C62.6 332.461 65.08 336.081 65.83 335.781C66.58 335.481 61.24 328.061 60.59 327.871C59.94 327.661 56.18 327.741 56.18 327.741Z" fill="#327CBF"/>
        <path d="M54.4301 329.2C54.4501 329.21 54.4601 329.21 54.4801 329.21C54.8201 329.24 55.1601 329.27 55.4801 329.29C57.8801 329.46 59.7801 329.5 62.0501 329.44C62.3801 329.43 62.7101 329.41 63.0601 329.4C63.6301 329.37 64.2301 329.34 64.8801 329.31C64.8801 329.31 62.1701 323.1 56.8001 322.86C56.1701 322.83 55.6201 322.97 55.1401 323.21V323.22C55.0501 325.13 54.8001 327.14 54.4301 329.2Z" fill="#003951"/>
        <path d="M65.16 305.44C65.62 306.19 65.89 306.64 65.9 306.66C66.09 306.5 66.18 306.42 66.37 306.25C66.32 306.18 66.11 305.82 65.77 305.25L65.16 305.44Z" fill="#003951"/>
        <path d="M64.3201 305.69C64.7701 306.86 65.4701 308.22 66.0301 309.23C66.5101 310.08 66.8701 310.68 66.8701 310.68C68.0001 309.83 68.5401 309.47 69.6801 308.5C69.6801 308.5 69.2501 307.93 68.6201 307.16C68.0801 306.49 67.3901 305.67 66.7001 304.96L65.7701 305.25L65.1601 305.44L64.3201 305.69Z" fill="#003951"/>
        <path d="M66.1401 308.91C65.1501 310.66 68.6101 318.73 69.2201 318.65C69.8301 318.57 69.1201 314.78 69.1201 314.78C69.1201 314.78 71.7901 318.42 72.4701 318.16C73.1501 317.9 71.4501 313.44 71.4501 313.44C71.4501 313.44 74.1001 316.58 74.7801 316.3C75.4601 316.02 72.6501 311.9 72.6501 311.9C72.6501 311.9 76.0901 313.69 76.5601 312.27C77.0201 310.83 68.9701 303.92 66.1401 308.91Z" fill="#5C00CC"/>
        <path d="M56.92 307.96C57.44 308.54 58.02 309.04 58.63 309.43C58.53 308.81 58.39 308.19 58.2 307.57L56.92 307.96Z" fill="#003951"/>
        <path d="M52.21 311.49C52.98 312.22 53.58 313.18 54.04 314.33C54.79 312.76 55.12 310.82 54.98 308.75L54.94 308.57L52.17 309.42C52.1 310.08 52.14 310.78 52.21 311.49Z" fill="#003951"/>
        <path d="M75.46 302.281C76.38 305.331 77.64 308.271 79.32 310.341C79.45 310.481 79.51 310.561 79.63 310.711C79.7 310.521 79.74 310.421 79.81 310.241C79.83 310.191 80.72 308.081 82.65 305.351L82.14 304.971C80.7 307.001 79.83 308.681 79.47 309.461C78.01 307.531 76.9 304.871 76.06 302.091L75.46 302.281Z" fill="#146582"/>
        <path d="M98.1901 333.921C98.1901 333.921 103.21 338.761 104.33 337.471C105.45 336.191 103.81 333.941 98.1901 333.921Z" fill="#327CBF"/>
        <path d="M98.91 332.76C98.91 332.76 104.93 328.46 105.76 329.84C106.58 331.23 104.46 333.35 98.91 332.76Z" fill="#327CBF"/>
        <path d="M103.34 339.62C105.25 337.82 97.6 333.32 97.76 333.7C97.92 334.08 100.83 341.98 103.34 339.62Z" fill="#36DDCD"/>
        <path d="M104.57 328.33C106.06 330.3 97.52 334 97.76 333.65C98 333.3 102.61 325.74 104.57 328.33Z" fill="#36DDCD"/>
        <path d="M104.98 333.201C104.73 335.781 97.52 334.001 97.76 333.651C98 333.301 105.27 330.211 104.98 333.201Z" fill="#36DDCD"/>
        <path d="M97.92 335.331C98.11 334.031 98.2 333.371 98.39 332.061C98.39 332.061 95.02 332.311 94.87 333.001C94.71 333.691 97.92 335.331 97.92 335.331Z" fill="#146582"/>
        <path d="M82.23 319.091C82 319.171 81.89 319.221 81.66 319.301C85.1 330.191 92.38 332.901 96.22 333.681C96.32 333.701 96.39 333.711 96.42 333.721C96.45 333.621 96.47 333.571 96.5 333.471C96.61 333.371 96.66 333.321 96.77 333.231C96.7 333.151 96.64 333.131 96.37 333.081C92.63 332.311 85.57 329.681 82.23 319.091Z" fill="#146582"/>
        <path d="M87.15 328.061C87.38 328.911 88.24 329.421 89.08 329.501C89.92 329.591 90.75 329.341 91.58 329.161C92.41 328.971 93.28 328.851 94.06 329.141C93.32 327.341 91.27 326.341 89.38 326.751C88.82 326.871 88.29 327.111 87.73 327.211C87.17 327.311 86.54 327.261 86.11 326.861L87.15 328.061Z" fill="#146582"/>
        <path d="M90.61 331.261C91.44 331.411 92 332.231 92.17 333.071C92.34 333.911 92.2 334.791 92.12 335.651C92.04 336.511 92.03 337.421 92.42 338.161C90.57 337.641 89.36 335.651 89.57 333.671C89.63 333.091 89.81 332.521 89.85 331.931C89.9 331.341 89.8 330.711 89.39 330.301L90.61 331.261Z" fill="#146582"/>
        <path d="M81.82 346.561C81.82 346.561 80.38 339.451 82.06 339.151C83.74 338.841 84.93 341.571 81.82 346.561Z" fill="#C4BF8A"/>
        <path d="M83.21 346.54C83.21 346.54 89.99 343.32 89.24 341.86C88.5 340.41 85.75 341.28 83.21 346.54Z" fill="#C4BF8A"/>
        <path d="M79.7 338.831C82.25 338.151 82 347.411 81.77 347.071C81.54 346.721 76.34 339.721 79.7 338.831Z" fill="#F5F4BE"/>
        <path d="M89.9099 343.71C89.0199 341.35 81.3799 347.1 81.8199 347.09C82.2499 347.07 91.0699 346.81 89.9099 343.71Z" fill="#5C00CC"/>
        <path d="M86.02 340.84C83.72 339.72 81.37 347.1 81.81 347.09C82.25 347.07 88.7 342.14 86.02 340.84Z" fill="#5C00CC"/>
        <path d="M80.47 346.021C81.7 346.581 82.31 346.841 83.52 347.371C83.52 347.371 81.38 350.211 80.7 349.971C80.02 349.731 80.47 346.021 80.47 346.021Z" fill="#003951"/>
        <path d="M80.9899 348.23C80.9799 348.26 80.9499 348.33 80.9099 348.43C79.3599 352.21 77.2699 359.65 82.3899 368.6C82.6499 368.46 82.7699 368.4 83.0299 368.26C78.0399 359.58 80.0099 352.31 81.5099 348.63C81.6199 348.36 81.6399 348.3 81.6099 348.19C81.4899 348.23 81.4199 348.24 81.2999 348.28C81.1799 348.26 81.1199 348.25 80.9899 348.23Z" fill="#003951"/>
        <path d="M79.8 359.201C79.25 358.531 79.45 357.541 79.97 356.821C80.5 356.101 81.24 355.511 81.92 354.901C82.6 354.291 83.25 353.591 83.47 352.761C84.53 354.371 84.07 356.701 82.45 358.091C81.97 358.501 81.43 358.841 80.93 359.231C80.43 359.631 80 360.161 80.01 360.731L79.8 359.201Z" fill="#003951"/>
        <path d="M79.52 354.561C79.96 353.811 79.62 352.881 78.98 352.241C78.34 351.601 77.47 351.191 76.64 350.731C75.81 350.271 74.98 349.711 74.57 348.931C73.81 350.711 74.75 352.921 76.66 353.961C77.22 354.271 77.85 354.471 78.4 354.781C78.95 355.091 79.44 355.541 79.5 356.101L79.52 354.561Z" fill="#003951"/>
        <path d="M82.16 330.97C80.67 331.28 79.15 331.56 77.59 331.48C76.03 331.4 74.41 330.91 73.11 329.8C71.81 328.69 70.94 326.97 71.13 325.39C73.18 324.85 75.45 325.25 77.43 326.17C79.41 327.09 81.24 329.01 82.16 330.97Z" fill="#36DDCD"/>
        <path d="M69.58 323.931C69.41 324.111 69.33 324.201 69.16 324.371C71.71 326.931 74.82 328.701 77.98 329.391C78.02 329.141 78.04 329.011 78.08 328.761C75.03 328.091 72.05 326.401 69.58 323.931Z" fill="#327CBF"/>
        <path d="M111.55 376.311C112.48 376.301 113.41 376.291 114.28 376.531C115.15 376.771 115.97 377.271 116.48 378.151C116.99 379.031 117.13 380.321 116.68 381.451C115.37 381.721 114.13 381.201 113.19 380.311C112.25 379.431 111.64 377.821 111.55 376.311Z" fill="#F5F4BE"/>
        <path d="M113.34 378.541C114.93 379.371 116.27 380.791 117.16 382.681C117.38 382.491 117.49 382.391 117.71 382.201C116.76 380.211 115.34 378.721 113.66 377.851C113.53 378.121 113.47 378.261 113.34 378.541Z" fill="#C4BF8A"/>
        <path d="M92.33 318.651C96.64 317.041 91.95 313.261 91.04 313.581C90.12 313.911 88.47 320.091 92.33 318.651Z" fill="#39D3C0"/>
        <path d="M92.2 312.471C92.4 313.571 94.34 315.971 95.76 315.121L92.2 312.471Z" fill="#39D3C0"/>
        <path d="M88.88 311.141C88.97 310.881 88.85 310.361 88.59 309.771H88.58L85.55 307.511C85.14 307.731 84.76 308.241 84.43 309.151C82.6 314.261 88.5 312.211 88.88 311.141Z" fill="#39D3C0"/>
        <path d="M85.6701 317.011C88.7401 320.631 89.9001 313.971 89.2701 313.211C88.6301 312.461 82.9201 313.781 85.6701 317.011Z" fill="#39D3C0"/>
        <path d="M89.19 312.14C89.35 313.05 90.14 313.5 90.91 313.23C91.36 313.07 91.71 312.69 91.88 312.23L89.61 310.54C89.26 310.96 89.09 311.56 89.19 312.14Z" fill="#F5F4BE"/>
        <path d="M42.15 353.87C42.66 354.15 43.38 354.36 44.35 354.46C49.13 354.95 47.57 352.19 45.7 350.41C44.57 351.85 43.38 353.03 42.15 353.87Z" fill="#39D3C0"/>
        <path d="M46.1 349.9C47.3 351.78 50.07 354.2 51.87 351.73C53.92 348.92 50 347.93 47.46 347.91C47.02 348.61 46.56 349.28 46.1 349.9Z" fill="#39D3C0"/>
        <path d="M47.98 347.06C50.33 347.34 52.96 346.89 50.82 344.24C50.52 343.87 50.23 343.57 49.95 343.33C49.33 344.65 48.67 345.9 47.98 347.06Z" fill="#39D3C0"/>
        <path d="M112.95 369.57C117.43 368.04 113.06 363.75 112.13 364.09C111.21 364.42 108.95 370.94 112.95 369.57Z" fill="#39D3C0"/>
        <path d="M117.83 364.241C119.56 359.161 113.64 361.631 113.32 362.641C112.99 363.651 116.28 368.791 117.83 364.241Z" fill="#39D3C0"/>
        <path d="M116.35 356.801C113.21 353.471 112.18 360.021 112.83 360.721C113.48 361.431 119.16 359.791 116.35 356.801Z" fill="#39D3C0"/>
        <path d="M109.85 355.491C105.51 357.131 110.17 360.771 111.09 360.441C112.02 360.111 113.73 354.031 109.85 355.491Z" fill="#39D3C0"/>
        <path d="M105.29 360.55C103.71 365.23 109.58 362.86 109.91 361.86C110.24 360.86 106.7 356.37 105.29 360.55Z" fill="#39D3C0"/>
        <path d="M106.5 367.761C109.2 371.371 110.99 364.481 110.36 363.771C109.74 363.051 104.09 364.531 106.5 367.761Z" fill="#39D3C0"/>
        <path d="M113.07 361.721C112.87 360.891 112.08 360.461 111.31 360.751C110.54 361.041 110.07 361.941 110.27 362.761C110.47 363.581 111.24 364.021 112.02 363.731C112.79 363.451 113.26 362.541 113.07 361.721Z" fill="#F5F4BE"/>
        <path d="M98.68 350.78C101.38 349.7 98.32 347.69 97.75 347.91C97.18 348.14 96.26 351.75 98.68 350.78Z" fill="#39D3C0"/>
        <path d="M101.36 347.66C102.12 344.85 98.59 346.46 98.43 347.05C98.27 347.64 100.68 350.17 101.36 347.66Z" fill="#39D3C0"/>
        <path d="M100.13 343.58C98.08 341.79 97.62 345.6 98.05 345.98C98.48 346.35 101.96 345.18 100.13 343.58Z" fill="#39D3C0"/>
        <path d="M96.03 342.991C93.35 344.021 96.38 346.081 96.95 345.861C97.52 345.651 98.43 342.071 96.03 342.991Z" fill="#39D3C0"/>
        <path d="M93.32 346.031C92.49 348.791 96.09 347.301 96.27 346.721C96.45 346.141 94.06 343.561 93.32 346.031Z" fill="#39D3C0"/>
        <path d="M94.44 350.141C96.45 352.001 97.05 348.191 96.62 347.801C96.2 347.411 92.64 348.471 94.44 350.141Z" fill="#39D3C0"/>
        <path d="M98.24 346.53C98.08 346.06 97.58 345.84 97.1 346.03C96.63 346.22 96.37 346.75 96.52 347.22C96.67 347.69 97.18 347.91 97.66 347.72C98.13 347.53 98.39 347 98.24 346.53Z" fill="#F5F4BE"/>
        <path d="M114.65 400.931C117.75 400.361 115.62 396.441 114.98 396.571C114.33 396.711 111.88 401.441 114.65 400.931Z" fill="#39D3C0"/>
        <path d="M118.6 397.46C120.5 393.76 116.38 394.83 115.99 395.59C115.59 396.36 116.9 400.77 118.6 397.46Z" fill="#39D3C0"/>
        <path d="M118.97 391.371C117.61 388.271 115.77 393.341 116.04 393.991C116.32 394.651 120.18 394.141 118.97 391.371Z" fill="#39D3C0"/>
        <path d="M115.19 389.38C112.22 390.04 114.39 393.63 115.02 393.51C115.66 393.38 117.84 388.79 115.19 389.38Z" fill="#39D3C0"/>
        <path d="M111.44 392.71C109.58 396.19 113.62 395.21 114.01 394.46C114.42 393.71 113.11 389.6 111.44 392.71Z" fill="#39D3C0"/>
        <path d="M110.85 398.621C111.97 401.811 114.19 396.721 113.94 396.051C113.68 395.381 109.84 395.761 110.85 398.621Z" fill="#39D3C0"/>
        <path d="M116.01 394.82C116.04 394.13 115.63 393.67 115.1 393.78C114.57 393.9 114.11 394.54 114.07 395.23C114.03 395.92 114.43 396.39 114.97 396.28C115.5 396.16 115.97 395.51 116.01 394.82Z" fill="#F5F4BE"/>
        <path d="M75.4701 338.27C75.7901 337.78 79.6501 339.79 79.2701 340.45C78.8901 341.11 75.0101 338.96 75.4701 338.27Z" fill="#12C40E"/>
        <path d="M75.31 337.841C75.12 337.251 79.16 336.071 79.41 336.811C79.65 337.551 75.57 338.681 75.31 337.841Z" fill="#12C40E"/>
        <path d="M75.26 337.861C74.64 337.611 75.91 333.771 76.66 334.051C77.4 334.341 76.13 338.221 75.26 337.861Z" fill="#12C40E"/>
        <path d="M75.2199 338.061C74.6799 338.351 72.0099 334.771 72.6899 334.411C73.3799 334.061 75.9799 337.651 75.2199 338.061Z" fill="#12C40E"/>
        <path d="M74.77 338.101C74.75 338.691 70.2 338.221 70.24 337.461C70.28 336.711 74.79 337.261 74.77 338.101Z" fill="#12C40E"/>
        <path d="M74.8701 338.3C75.3901 338.71 72.7201 341.76 72.0501 341.23C71.3801 340.69 74.1301 337.72 74.8701 338.3Z" fill="#12C40E"/>
        <path d="M75.12 338.321C75.75 338.211 77.19 342.161 76.38 342.311C75.57 342.461 74.23 338.481 75.12 338.321Z" fill="#12C40E"/>
        <path d="M74.48 338.891C74.94 339.261 75.61 339.231 75.96 338.841C76.31 338.451 76.22 337.841 75.76 337.481C75.3 337.121 74.64 337.141 74.29 337.521C73.93 337.911 74.02 338.521 74.48 338.891Z" fill="#F5F4BE"/>
        <path d="M124.17 372.851C124.53 372.231 127.86 374.921 127.39 375.721C126.91 376.521 123.66 373.731 124.17 372.851Z" fill="#12C40E"/>
        <path d="M124.07 372.33C123.97 371.61 127.92 370.28 128.06 371.21C128.2 372.13 124.21 373.35 124.07 372.33Z" fill="#12C40E"/>
        <path d="M124.03 372.36C123.5 372.08 125.09 367.4 125.77 367.76C126.45 368.1 124.78 372.76 124.03 372.36Z" fill="#12C40E"/>
        <path d="M123.96 372.61C123.44 372.99 121.43 368.89 122.08 368.4C122.74 367.9 124.71 372.06 123.96 372.61Z" fill="#12C40E"/>
        <path d="M123.55 372.681C123.46 373.411 119.46 373.261 119.58 372.341C119.7 371.421 123.68 371.641 123.55 372.681Z" fill="#12C40E"/>
        <path d="M123.62 372.921C124.04 373.401 121.21 377.401 120.7 376.781C120.18 376.171 123.03 372.241 123.62 372.921Z" fill="#12C40E"/>
        <path d="M123.84 372.941C124.42 372.771 125.14 377.761 124.39 377.971C123.63 378.161 123.02 373.181 123.84 372.941Z" fill="#12C40E"/>
        <path d="M123.19 373.67C123.56 374.1 124.16 374.04 124.54 373.54C124.91 373.04 124.91 372.28 124.53 371.86C124.15 371.43 123.56 371.5 123.19 372C122.82 372.49 122.82 373.24 123.19 373.67Z" fill="#F5F4BE"/>
        <path d="M69.1801 385.19C69.2901 385.78 69.4201 386.35 69.5501 386.92C70.0801 387.11 70.5401 387.16 70.7501 386.97C71.1601 386.61 70.2201 385.79 69.1801 385.19Z" fill="#12C40E"/>
        <path d="M68.8201 383.3C68.8801 383.65 68.9401 384 69.0101 384.35C70.5701 384.15 72.4601 383.61 72.4601 383.15C72.4601 382.68 70.4101 382.91 68.8201 383.3Z" fill="#12C40E"/>
        <path d="M68.49 381.38C68.57 381.91 68.66 382.43 68.75 382.94C69.75 381.86 70.63 380.41 70.15 380.23C69.83 380.11 69.15 380.66 68.49 381.38Z" fill="#12C40E"/>
        <path d="M63.72 424.12C63.73 424.12 63.73 424.13 63.73 424.13C63.74 424.12 63.74 424.11 63.74 424.1C63.74 424.11 63.73 424.12 63.72 424.12Z" fill="#F5F4BE"/>
        <path d="M63.72 424.12C63.73 424.12 63.73 424.13 63.73 424.13C63.74 424.12 63.74 424.11 63.74 424.1C63.74 424.11 63.73 424.12 63.72 424.12Z" fill="#146582"/>
        <path d="M83.6599 412.87C83.8299 413 83.9999 413.13 84.1699 413.25C86.8399 410.56 89.1599 407.51 91.0099 404.2C90.7799 404.11 90.6699 404.06 90.4399 403.96C88.6099 407.23 86.3099 410.24 83.6599 412.87Z" fill="#146582"/>
        <path d="M94.16 417.631C94.18 417.641 94.19 417.641 94.21 417.641C94.56 417.701 94.89 417.751 95.18 417.771C95.41 417.801 95.61 417.821 95.8 417.841C95.8 417.841 95.81 417.841 95.82 417.841V417.831C95.62 417.701 95.42 417.601 95.24 417.531C94.94 417.401 94.67 417.351 94.47 417.401C94.36 417.431 94.26 417.491 94.19 417.581C94.18 417.601 94.17 417.611 94.16 417.631Z" fill="#12C40E"/>
        <path d="M94.11 417.541C94.11 417.571 94.11 417.601 94.12 417.631H94.16C94.18 417.641 94.19 417.641 94.21 417.641C94.56 417.701 94.89 417.751 95.18 417.771C95.41 417.801 95.61 417.821 95.8 417.841C95.8 417.841 95.81 417.841 95.82 417.841V417.831C96.51 417.641 97.33 417.301 98.16 416.881C100.13 415.881 102.09 414.451 102.05 413.621C102.04 413.401 101.91 413.291 101.67 413.261C100.57 413.071 97.33 414.671 95.47 416.051C95.36 416.131 95.26 416.211 95.16 416.291C94.52 416.791 94.11 417.241 94.11 417.541Z" fill="#12C40E"/>
        <path d="M93.5701 417.53C93.7601 417.57 93.9401 417.601 94.1201 417.631H94.1601C94.1801 417.641 94.1901 417.641 94.2101 417.641C94.2901 417.581 94.3801 417.5 94.4701 417.4C94.7101 417.17 94.9601 416.83 95.2201 416.44C95.3001 416.32 95.3801 416.19 95.4701 416.05C97.0901 413.42 98.8901 408.74 98.0401 408.52C97.1901 408.3 94.9301 412.79 93.9901 415.61C93.7001 416.46 93.5301 417.16 93.5701 417.53Z" fill="#12C40E"/>
        <path d="M93.27 417.231C92.15 418.161 89.2 411.471 90.57 410.331C91.93 409.191 94.86 415.911 93.27 417.231Z" fill="#12C40E"/>
        <path d="M90.4 416.64C90.95 416.84 91.48 417.01 91.98 417.15C92.33 417.25 92.67 417.33 92.99 417.41C92.98 417.37 92.97 417.34 92.96 417.31C92.87 417.08 92.62 416.91 92.27 416.8C92.26 416.8 92.24 416.79 92.22 416.79C91.75 416.65 91.1 416.61 90.4 416.64Z" fill="#12C40E"/>
        <path d="M91.9801 417.151C92.3301 417.251 92.6701 417.331 92.9901 417.411C93.1901 417.451 93.3801 417.491 93.5701 417.531C93.7601 417.571 93.9401 417.601 94.1201 417.631H94.1601C94.1801 417.641 94.1901 417.641 94.2101 417.641C94.5601 417.701 94.8901 417.751 95.1801 417.771C95.2001 417.731 95.2101 417.701 95.2201 417.661C95.2301 417.621 95.2401 417.571 95.2401 417.531C95.3301 417.111 95.3201 416.741 95.2201 416.441C95.2101 416.391 95.1901 416.341 95.1601 416.291C94.9701 415.811 94.5501 415.541 93.9901 415.611C93.9801 415.611 93.9801 415.611 93.9701 415.611C93.8901 415.621 93.8001 415.641 93.7201 415.661C93.1801 415.811 92.6501 416.221 92.2401 416.771C92.2301 416.781 92.2201 416.781 92.2201 416.791C92.1301 416.901 92.0501 417.021 91.9801 417.151Z" fill="#F5F4BE"/>
        <path d="M101.98 321.531L109.04 334.511V334.521L110.85 337.861L111.46 338.981L114.23 344.091V344.101L131.1 375.131C132.56 374.051 133.62 373.071 134.37 372.171C134.38 372.161 134.38 372.161 134.38 372.161C134.39 372.141 134.4 372.131 134.41 372.121C134.48 372.041 134.54 371.971 134.59 371.891C134.74 371.701 134.88 371.521 134.99 371.351C137.6 367.541 134.57 365.591 134.57 365.591C134.57 365.591 137.01 364.341 140.39 362.451C140.73 362.251 141.09 362.051 141.45 361.851C141.48 361.831 141.51 361.811 141.54 361.801C141.68 361.711 141.83 361.631 141.98 361.541C145.21 359.691 149 357.401 152.28 355.101C152.46 354.971 152.63 354.851 152.8 354.731C154.37 353.601 155.81 352.481 156.98 351.421C158.02 350.461 158.85 349.551 159.39 348.721C159.54 348.491 159.66 348.271 159.76 348.061C159.79 348.001 159.81 347.951 159.83 347.891C160.21 347.031 160.42 345.981 160.49 344.821C160.5 344.571 160.51 344.311 160.52 344.051C160.53 343.241 160.49 342.391 160.4 341.511C160.21 339.541 159.8 337.451 159.31 335.461C159.24 335.161 159.16 334.851 159.08 334.561C159.04 334.391 159 334.221 158.95 334.061C158.94 334.001 158.92 333.941 158.91 333.881C158.84 333.641 158.77 333.401 158.71 333.171C157.59 329.201 156.36 326.111 156.36 326.111C159.95 319.381 159.46 315.931 159.29 315.191C159.43 315.621 160.04 316.711 162.29 315.381C162.46 315.291 162.64 315.171 162.83 315.041C162.9 314.991 162.97 314.941 163.04 314.881C164.83 313.471 164.45 311.061 163.91 309.421C163.75 308.951 163.58 308.551 163.45 308.251C163.32 307.981 163.22 307.791 163.18 307.721C163.3 307.851 163.41 307.971 163.53 308.091C163.75 308.351 163.98 308.581 164.19 308.791C167 311.551 168.1 310.621 168.1 310.621C169.2 308.471 169.62 305.531 169.56 302.151C169.56 301.781 169.55 301.401 169.53 301.011C169.28 295.431 167.86 288.821 166.16 282.651C165.85 281.501 165.52 280.371 165.18 279.271C165.15 279.131 165.1 278.991 165.06 278.851C165 278.661 164.95 278.471 164.89 278.281C164.5 277.011 164.11 275.771 163.72 274.581C162.28 270.181 160.91 266.511 160.08 264.351C159.56 263.021 159.25 262.261 159.25 262.261L154.61 264.821L150.82 266.901L145.14 270.031L143.48 270.941C143.48 270.941 143.48 270.941 143.47 270.941L143.24 271.071L141.94 271.791L141.63 271.961L138.74 273.551H138.73L131.05 277.781C131.04 277.781 131.03 277.791 131.02 277.791L129.78 278.481L123.53 281.921L122.79 282.331L110.83 288.911L109.48 293.881L108.15 298.771L107.58 300.891C107.58 300.901 107.58 300.901 107.58 300.901L107.26 302.081C107.25 302.091 107.25 302.091 107.26 302.101V302.111L104.43 312.501L103.61 315.531V315.541L101.98 321.531Z" fill="url(#paint3_linear_1634_7263)"/>
        <path d="M150.82 266.901C150.79 270.911 151.7 276.311 154.5 279.331C156.03 280.991 158.14 281.931 160.97 281.521C162.35 281.321 163.78 280.491 165.18 279.271C165.34 279.141 165.5 278.991 165.66 278.841C165.46 278.851 165.26 278.851 165.06 278.851C165 278.661 164.95 278.471 164.89 278.281C164.5 277.011 164.11 275.771 163.72 274.581C162.28 270.181 160.91 266.511 160.08 264.351C158.69 268.301 157.65 272.041 157.65 272.041C157.65 272.041 156.2 267.851 154.61 264.821L150.82 266.901Z" fill="#36DDCD"/>
        <path d="M155.45 279.261C155.97 280.131 156.43 280.741 156.66 280.781C157.49 280.931 162.81 280.531 162.81 280.531C162.81 280.531 163.47 279.841 164.36 278.871C164.53 278.681 164.71 278.481 164.89 278.281C164.5 277.011 164.11 275.771 163.72 274.581C162.99 275.041 162.41 275.381 162.15 275.371C161.4 275.341 161.27 270.851 159.6 271.371C157.93 271.881 158.52 276.201 157.22 276.161C155.93 276.121 154.37 272.361 153.23 272.731C152.41 273.001 154.12 277.001 155.45 279.261Z" fill="#327CBF"/>
        <path d="M151.41 279.591C151.41 279.591 152.27 284.781 158.36 285.441C158.67 285.471 158.99 285.501 159.32 285.501C159.55 285.521 159.78 285.521 160.03 285.511C162.57 285.451 164.64 284.111 166.16 282.651C165.85 281.501 165.52 280.371 165.18 279.271C165.34 279.141 165.5 278.991 165.66 278.841C165.46 278.851 165.26 278.851 165.06 278.851C164.82 278.851 164.59 278.861 164.36 278.871C161.11 278.911 158.52 279.031 155.45 279.261C155.14 279.281 154.82 279.301 154.5 279.331C153.53 279.411 152.52 279.491 151.41 279.591Z" fill="#003951"/>
        <path d="M158.65 302.211C158.79 303.001 158.96 303.791 159.13 304.571C159.83 307.681 160.74 310.771 161.76 313.831C161.85 314.111 161.95 314.391 162.04 314.671C162.12 314.911 162.2 315.141 162.29 315.381C162.46 315.291 162.64 315.171 162.83 315.041C162.9 314.991 162.97 314.941 163.04 314.881C162.95 314.631 162.86 314.371 162.78 314.121C162.56 313.461 162.34 312.801 162.14 312.141C160.86 308.081 159.8 303.971 159.21 299.811C159.04 298.631 158.91 297.451 158.83 296.261C158.56 292.721 158.67 289.131 159.32 285.501C159.48 284.591 159.67 283.681 159.9 282.771C159.51 282.761 159.32 282.761 158.93 282.761C158.71 283.661 158.51 284.551 158.36 285.441C157.34 291.131 157.63 296.721 158.65 302.211Z" fill="#003951"/>
        <path d="M142.24 300.97C142.35 301.08 143.19 301.93 144.6 303.19C147.95 306.19 154.51 311.5 162.04 314.67C162.07 314.68 162.11 314.7 162.14 314.71C162.39 314.81 162.51 314.86 162.76 314.97C162.76 314.78 162.77 314.68 162.77 314.5C162.77 314.49 162.76 314.36 162.78 314.12C162.8 313.38 162.98 311.62 163.91 309.42C163.75 308.95 163.58 308.55 163.45 308.25C162.73 309.75 162.35 311.1 162.14 312.14C161.98 312.9 161.91 313.5 161.87 313.88C161.83 313.86 161.8 313.85 161.76 313.83C154.75 310.74 148.52 305.69 145.28 302.79C143.8 301.47 142.94 300.6 142.92 300.57C142.65 300.73 142.51 300.81 142.24 300.97Z" fill="#003951"/>
        <path d="M142.13 297.221C142.13 297.221 146.54 302.161 145.03 303.081C143.52 303.991 138.12 299.401 138.12 299.401C139.69 298.521 140.49 298.081 142.13 297.221Z" fill="#003951"/>
        <path d="M142.85 298.69C144.42 297.08 142.05 290.27 141.21 290.38C140.37 290.49 140.11 293.87 140.11 293.87C140.11 293.87 137.72 290.75 136.75 291.03C135.77 291.31 136.71 295.23 136.71 295.23C136.71 295.23 134.16 292.58 133.22 292.88C132.28 293.18 134.84 296.65 134.84 296.65C134.84 296.65 130.92 295.31 130.06 296.58C129.21 297.84 138.38 303.28 142.85 298.69Z" fill="#5C00CC"/>
        <path d="M159.07 303.751C158.79 301.221 156.47 298.681 153.33 297.551C153.53 300.371 155.89 303.081 159.44 304.721L159.07 303.751Z" fill="#003951"/>
        <path d="M158.45 297.86C158.64 295.4 160.49 293.15 163.33 291.58C163.11 292.65 163.16 293.73 163.05 294.79C162.94 295.86 162.88 297.02 162.23 297.98C161.58 298.95 160.34 299.73 158.82 299.86L158.45 297.86Z" fill="#003951"/>
        <path d="M109.04 334.51V334.52L110.85 337.86C111.52 336.86 112.01 336.08 112.12 335.93C112.08 336.11 111.8 337.33 111.46 338.98L114.23 344.09C115.44 340.7 116.43 337.32 116.43 337.32C116.43 337.32 117.86 347.24 119.19 347.83C120.19 348.27 121.85 336.96 119.42 331.32C118.64 329.48 117.41 328.24 115.59 328.21C114.61 328.19 113.51 328.89 112.4 329.99C111.24 331.16 110.07 332.79 109.04 334.51Z" fill="#36DDCD"/>
        <path d="M114.34 328.851C114.34 328.851 108.84 334.971 110.04 335.291C111.23 335.611 113.61 333.421 114.05 333.571C114.5 333.711 114.09 337.741 115.16 337.571C116.23 337.401 116.35 333.401 117.15 333.671C117.95 333.941 118.5 337.681 119.27 337.591C120.03 337.501 118.63 329.851 118.14 329.561C117.64 329.281 114.34 328.851 114.34 328.851Z" fill="#327CBF"/>
        <path d="M116.83 324.721C113.31 324.051 110.4 329.661 110.4 329.661C114.7 330.381 116.86 330.751 121.28 331.721C121.29 331.721 121.55 325.621 116.83 324.721Z" fill="#146582"/>
        <path d="M130.54 288.491C130.24 288.471 130.09 288.451 129.79 288.431C124.45 301.051 120.56 314.191 116.44 327.241C116.68 327.301 116.79 327.331 117.03 327.401C121.17 314.311 125.1 301.111 130.54 288.491Z" fill="#146582"/>
        <path d="M126.08 298.121C125.96 298.291 125.91 298.371 125.79 298.541C125.73 298.631 120.09 306.951 110.51 312.051C110.6 312.271 110.65 312.381 110.75 312.601C119.33 308.031 124.81 301.001 126.1 299.201C131.31 304.411 133.41 314.991 133.43 315.101C133.72 315.061 133.87 315.041 134.17 315.001C134.08 314.551 131.74 303.591 126.39 298.431C126.27 298.301 126.21 298.241 126.08 298.121Z" fill="#146582"/>
        <path d="M132.39 318.18C132.39 318.18 131.41 312.55 133.1 312.26C134.78 311.97 136.63 317.9 136.63 317.9C134.91 317.98 134.06 318.04 132.39 318.18Z" fill="#146582"/>
        <path d="M109.24 315.531C109.24 315.531 114.17 311.771 113.5 310.611C112.82 309.441 107.17 312.861 107.17 312.861C107.99 313.941 108.4 314.471 109.24 315.531Z" fill="#146582"/>
        <path d="M103.08 318.771C103.75 319.011 106.41 316.301 106.41 316.301C106.41 316.301 104.66 320.191 105.32 320.441C105.96 320.671 108.41 317.841 108.62 317.611C108.57 317.881 107.92 320.881 108.47 320.981C109.03 321.081 112.37 315.121 111.95 313.191C111.93 313.101 111.91 313.021 111.87 312.951C111.73 312.681 111.58 312.451 111.39 312.251C111.26 312.091 111.11 311.951 110.95 311.821C110.94 311.821 110.94 311.821 110.94 311.821C110.64 311.601 110.32 311.441 109.97 311.351C108.33 310.851 106.16 311.551 104.43 312.501L103.61 315.531C104.5 315.301 105.32 314.931 105.32 314.931C105.32 314.931 102.42 318.521 103.08 318.771Z" fill="#5C00CC"/>
        <path d="M122.96 308.5C121.98 310.73 122.52 313.21 124.27 314.82C125.32 312.39 124.89 309.53 123.16 307.61L122.96 308.5Z" fill="#146582"/>
        <path d="M120.96 313.711C119.91 315.821 118.14 317.641 116.05 318.781C116.42 317.831 116.66 316.831 117 315.861C117.34 314.891 117.8 313.921 118.56 313.151C119.32 312.381 120.43 311.831 121.49 311.921L120.96 313.711Z" fill="#146582"/>
        <path d="M123.53 281.921L122.79 282.331C123.76 284.561 124.48 287.241 124.75 290.451C125.06 290.361 125.21 290.321 125.52 290.241C125.26 286.961 124.52 284.221 123.53 281.921Z" fill="#146582"/>
        <path d="M130.42 352.12C130.42 352.12 125.49 346.1 124.3 347.31C123.12 348.52 124.64 350.95 130.42 352.12Z" fill="#327CBF"/>
        <path d="M129.62 353.23C129.62 353.23 123.31 356.86 122.55 355.25C121.79 353.65 123.97 351.48 129.62 353.23Z" fill="#327CBF"/>
        <path d="M125.39 345.19C123.37 346.81 131 352.9 130.86 352.46C130.72 352.01 128.04 343.06 125.39 345.19Z" fill="#36DDCD"/>
        <path d="M123.65 357.061C122.27 354.681 131.11 352.161 130.84 352.501C130.58 352.841 125.47 360.191 123.65 357.061Z" fill="#36DDCD"/>
        <path d="M123.48 351.75C123.84 349.03 131.12 352.17 130.85 352.51C130.58 352.84 123.06 354.9 123.48 351.75Z" fill="#36DDCD"/>
        <path d="M130.77 350.66C130.51 352.03 130.38 352.72 130.11 354.1C130.11 354.1 133.59 354.58 133.8 353.87C134 353.15 130.77 350.66 130.77 350.66Z" fill="#146582"/>
        <path d="M131.85 353.191C131.92 353.291 131.98 353.321 132.26 353.441C132.66 353.621 133.1 353.831 133.57 354.091C135.42 355.101 137.71 356.791 139.86 359.551C140.4 360.251 140.94 361.011 141.45 361.851C141.48 361.831 141.51 361.811 141.54 361.801C141.68 361.711 141.83 361.631 141.98 361.541C141.03 359.981 140 358.661 138.98 357.551C138.3 356.821 137.61 356.181 136.94 355.621C136.94 355.621 136.94 355.621 136.93 355.611C135.76 354.651 134.65 353.931 133.66 353.411C133.23 353.181 132.82 352.981 132.45 352.821C132.35 352.771 132.28 352.741 132.25 352.721C132.2 352.831 132.18 352.881 132.14 352.981C132.03 353.061 131.97 353.101 131.85 353.191Z" fill="#146582"/>
        <path d="M134.37 358.36C134.99 360.59 137.02 362.27 139.04 362.43C139.49 362.47 139.94 362.43 140.39 362.45C140.73 362.25 141.09 362.05 141.45 361.85C141.48 361.83 141.51 361.81 141.54 361.8L141.48 361.7C141.33 360.76 140.63 359.96 139.86 359.55C139.77 359.49 139.68 359.45 139.58 359.41C138.71 359.04 137.81 359.05 136.94 359.01C136.07 358.97 135.14 358.89 134.37 358.36Z" fill="#146582"/>
        <path d="M138.11 356.931C137.26 356.521 136.73 355.461 136.62 354.491C136.51 353.521 136.71 352.611 136.86 351.701C137.01 350.791 137.09 349.831 136.72 348.931C138.66 349.991 139.78 352.471 139.4 354.571C139.29 355.191 139.05 355.761 138.96 356.411C138.86 357.061 138.92 357.811 139.31 358.391L138.11 356.931Z" fill="#146582"/>
        <path d="M156.92 334.371C156.96 334.471 157.07 334.581 157.25 334.681C157.69 334.951 158.5 335.231 159.31 335.461C159.24 335.161 159.16 334.851 159.08 334.561C159.04 334.391 159 334.221 158.95 334.061C158.94 334.001 158.92 333.941 158.91 333.881C158.84 333.641 158.77 333.401 158.71 333.171C158.05 333.431 157.42 333.711 157.11 333.991L157.1 334.001C156.95 334.121 156.88 334.251 156.92 334.371Z" fill="#146582"/>
        <path d="M142.34 346.721C142.61 346.831 142.74 346.881 143 346.991C143.86 343.661 145.33 341.191 147.09 339.371C147.09 339.371 147.09 339.361 147.1 339.361C147.92 338.521 148.79 337.821 149.7 337.241C149.7 337.241 149.7 337.231 149.71 337.231C152.2 335.641 154.92 334.931 157.25 334.681C157.84 334.611 158.41 334.581 158.94 334.571C158.99 334.571 159.04 334.571 159.08 334.561C159.04 334.391 159 334.221 158.95 334.061C158.94 334.001 158.92 333.941 158.91 333.881C158.86 333.891 158.78 333.891 158.69 333.891C158.19 333.901 157.66 333.931 157.11 333.991L157.1 334.001C155.79 334.131 154.36 334.401 152.91 334.901H152.9C152.09 335.171 151.28 335.511 150.48 335.931C147.01 337.731 143.79 341.011 142.34 346.721Z" fill="#146582"/>
        <path d="M147.65 338.5C147.82 337.66 148.8 337.23 149.83 337.23C150.86 337.24 151.94 337.59 153.02 337.9C154.09 338.21 155.24 338.49 156.23 338.31C155.43 340.08 152.92 340.76 150.53 340.08C149.83 339.88 149.15 339.58 148.45 339.41C147.76 339.24 147.01 339.24 146.55 339.6L147.65 338.5Z" fill="#146582"/>
        <path d="M151.54 335.591C152.57 335.541 153.21 334.761 153.33 333.901C153.45 333.041 153.18 332.101 152.98 331.191C152.78 330.281 152.66 329.331 153.1 328.601C150.69 328.951 149.41 330.921 149.93 332.991C150.08 333.601 150.37 334.211 150.51 334.821C150.64 335.431 150.59 336.081 150.14 336.451L151.54 335.591Z" fill="#146582"/>
        <path d="M129.71 277.931C131.72 277.701 133.78 277.481 135.73 277.641C137.68 277.801 139.52 278.361 140.68 279.491C141.84 280.621 142.19 282.351 141.27 283.961C138.33 284.611 135.54 284.241 133.41 283.271C131.28 282.301 129.85 280.181 129.71 277.931Z" fill="#36DDCD"/>
        <path d="M142.71 285.341C143.01 285.151 143.15 285.061 143.45 284.881C141.09 282.491 137.88 280.731 134.18 279.891C134.01 280.161 133.92 280.291 133.75 280.561C137.33 281.351 140.43 283.031 142.71 285.341Z" fill="#327CBF"/>
        <path d="M113.18 290.531C108.17 291.911 112.37 296.201 113.41 295.891C114.45 295.581 117.66 289.291 113.18 290.531Z" fill="#39D3C0"/>
        <path d="M108.15 298.771C109.57 298.841 111.64 297.881 111.91 297.321C112.26 296.611 111 294.011 109.48 293.881L108.15 298.771Z" fill="#39D3C0"/>
        <path d="M107.26 302.08C107.25 302.09 107.25 302.09 107.26 302.1V302.11C107.31 302.47 107.48 302.86 107.82 303.28C110.59 306.72 112.7 300.02 112.12 299.29C111.72 298.78 108.61 299.42 107.58 300.89C107.57 300.89 107.58 300.9 107.58 300.9L107.26 302.08Z" fill="#39D3C0"/>
        <path d="M114.55 304.681C119.44 303.161 114.97 299.321 113.93 299.631C112.88 299.941 110.17 306.041 114.55 304.681Z" fill="#39D3C0"/>
        <path d="M120.28 299.81C122.78 295.21 115.96 297.24 115.43 298.24C114.91 299.23 118.04 303.92 120.28 299.81Z" fill="#39D3C0"/>
        <path d="M120.03 292.541C117.42 288.901 114.7 295.531 115.25 296.281C115.81 297.041 122.37 295.801 120.03 292.541Z" fill="#39D3C0"/>
        <path d="M112.03 298.27C112.11 299.12 112.88 299.58 113.75 299.31C114.62 299.04 115.27 298.15 115.2 297.31C115.13 296.47 114.36 295.99 113.48 296.25C112.6 296.51 111.95 297.42 112.03 298.27Z" fill="#F5F4BE"/>
        <path d="M149.01 314.42C145.14 314.49 148.79 317.63 149.59 317.63C150.4 317.63 152.47 314.37 149.01 314.42Z" fill="#39D3C0"/>
        <path d="M144.78 316.56C143.21 319.07 148.15 318.75 148.5 318.23C148.84 317.7 146.19 314.31 144.78 316.56Z" fill="#39D3C0"/>
        <path d="M145.53 321.01C147.8 323.51 149.24 319.98 148.76 319.44C148.27 318.89 143.5 318.77 145.53 321.01Z" fill="#39D3C0"/>
        <path d="M150.74 323.2C154.51 323.32 150.99 320 150.18 319.98C149.38 319.97 147.37 323.09 150.74 323.2Z" fill="#39D3C0"/>
        <path d="M155.11 321.401C156.93 319.041 151.68 318.921 151.31 319.421C150.94 319.931 153.48 323.521 155.11 321.401Z" fill="#39D3C0"/>
        <path d="M154.61 316.79C152.32 314.04 150.6 317.64 151.08 318.2C151.55 318.76 156.66 319.25 154.61 316.79Z" fill="#39D3C0"/>
        <path d="M148.64 318.811C148.74 319.331 149.36 319.751 150.03 319.751C150.7 319.751 151.17 319.341 151.08 318.811C150.98 318.281 150.35 317.851 149.68 317.851C149 317.861 148.54 318.291 148.64 318.811Z" fill="#F5F4BE"/>
        <path d="M133.91 335.82C132.92 336.09 129.83 329.9 131.1 329.53C132.38 329.16 135.31 335.44 133.91 335.82Z" fill="#12C40E"/>
        <path d="M133.67 336.471C133.29 337.331 126.59 334.931 127.01 333.781C127.42 332.621 134.21 335.241 133.67 336.471Z" fill="#12C40E"/>
        <path d="M133.75 336.49C134.33 337.36 128.67 340.88 127.94 339.82C127.22 338.76 132.93 335.25 133.75 336.49Z" fill="#12C40E"/>
        <path d="M134.03 336.29C135.1 336.46 135 343.17 133.68 342.96C132.37 342.75 132.52 336.06 134.03 336.29Z" fill="#12C40E"/>
        <path d="M134.7 336.67C135.38 336 141.24 340.91 140.35 341.73C139.46 342.55 133.74 337.62 134.7 336.67Z" fill="#12C40E"/>
        <path d="M134.78 336.34C134.51 335.37 141.78 334.46 142.09 335.72C142.4 336.98 135.16 337.71 134.78 336.34Z" fill="#12C40E"/>
        <path d="M134.46 336.08C133.46 335.62 135.98 329.67 137.29 330.28C138.6 330.89 135.87 336.73 134.46 336.08Z" fill="#12C40E"/>
        <path d="M135.97 336.03C135.73 335.17 134.77 334.56 133.85 334.69C132.92 334.82 132.39 335.62 132.64 336.48C132.89 337.33 133.83 337.92 134.74 337.8C135.65 337.68 136.21 336.89 135.97 336.03Z" fill="#F5F4BE"/>
        <path d="M138.3 274.87C138.83 275.11 140.64 273.3 141.63 271.96L138.74 273.55H138.73C138.27 274.21 138.04 274.75 138.3 274.87Z" fill="#12C40E"/>
        <path d="M143.24 271.07L141.94 271.79C142.06 273.09 142.87 274.75 143.57 274.48C144.31 274.2 143.86 272.17 143.24 271.07Z" fill="#12C40E"/>
        <path d="M143.48 270.94C144.78 271.49 148.03 271.66 148.39 271.01C148.67 270.49 146.77 270.1 145.14 270.03L143.48 270.94Z" fill="#12C40E"/>
        <path d="M160.52 344.051C160.53 343.241 160.49 342.391 160.4 341.511C159.59 341.931 159.87 342.981 160.52 344.051Z" fill="#39D3C0"/>
        <path d="M159.83 347.891C160.21 347.031 160.42 345.981 160.49 344.821C159.23 343.161 157.32 341.761 156.04 343.741C154.3 346.411 157.55 347.651 159.83 347.891Z" fill="#39D3C0"/>
        <path d="M156.98 351.42C158.02 350.46 158.85 349.55 159.39 348.72C157.38 348.37 155.27 348.76 156.98 351.42Z" fill="#39D3C0"/>
        <path d="M111.18 198.84C106.14 200.54 85.82 228.58 85.82 228.58C83.66 227.99 73.48 229.55 73.48 229.55C59.71 228.19 60.06 215.24 60.06 215.24C53.15 226.94 67.75 232.68 67.75 232.68C52.93 231.02 54.34 223.27 54.34 223.27C49.63 233.57 58.87 235.56 58.41 238.15C57.95 240.73 43.79 250.93 43.79 250.93C18.82 256.85 11 276.18 11 276.18C20.15 281.28 45.77 284.75 45.77 284.75C53.57 295.04 72.45 305.4 79.22 305.4C85.99 305.41 104.74 299.54 112.27 293.87C119.8 288.2 123.72 279.36 125.73 269.97C127.15 263.54 119.29 234.24 119.56 232.92C121.24 222.17 116.22 197.14 111.18 198.84Z" fill="url(#paint4_linear_1634_7263)"/>
        <path d="M76.25 265.63C75.21 267.45 73.71 268.97 71.9 270.03C69.02 272.17 65.57 273.41 61.99 273.62C57.98 273.82 53.98 272.97 50.4 271.14C47.93 269.89 47.84 269.22 49.4 266.98C50.43 265.65 51.54 264.4 52.73 263.22C52.87 263.09 53.02 262.97 53.17 262.87C53.24 262.84 53.31 262.78 53.34 262.71C54.61 261.58 56.08 260.7 57.66 260.09C61.95 258.45 66.79 259.08 71.13 260.69C72.65 261.33 74.1 262.14 75.67 262.91C76.56 263.31 76.61 264.97 76.25 265.63Z" fill="#FAF8F8"/>
        <path d="M88.6099 264.521C87.3099 263.901 85.4099 262.671 84.3199 264.231C84.2099 264.421 84.1499 264.641 84.1199 264.851C84.0999 265.071 84.1199 265.291 84.1799 265.501C84.2399 265.711 84.3499 265.911 84.4899 266.081C84.6299 266.251 84.7999 266.391 84.9899 266.501C85.7099 267.061 86.5499 267.461 87.4399 267.671C87.9399 267.861 88.9799 267.661 88.8199 268.601C88.7599 268.991 88.5699 269.341 88.2999 269.621C88.0299 269.901 87.6699 270.091 87.2899 270.161C86.7999 270.301 84.7899 269.981 84.3099 270.241C83.4499 270.721 83.3899 271.291 84.1199 271.861C84.8399 272.431 88.5699 272.241 89.1399 271.521C89.2799 271.251 89.4499 271.091 89.5899 270.831C90.3999 269.031 91.5899 268.231 93.6999 268.951C94.5599 269.251 97.7499 265.981 97.9099 265.041C98.0799 264.101 97.3299 263.871 96.5999 263.981C95.8599 264.091 95.1799 266.071 94.6499 266.561C93.8499 267.371 92.9299 266.851 92.1899 266.621C91.2199 266.351 91.7899 265.631 91.8399 265.051C91.9499 264.371 92.0099 263.681 92.0099 263.001C91.9699 261.011 89.4399 260.151 88.9399 262.201C88.9599 262.981 88.8499 263.771 88.6099 264.521Z" fill="#1A2B44"/>
        <path d="M76.43 264.13C76.51 264.64 76.44 265.17 76.22 265.64C75.18 267.46 73.68 268.98 71.87 270.04C68.98 272.17 65.54 273.42 61.96 273.63C60.74 272.29 59.82 270.7 59.26 268.97C60.77 268.08 64.22 264.39 62.73 262.71C61.55 261.61 59.03 262.46 58 263.44C57.81 262.28 57.72 261.11 57.74 259.94C62.02 258.31 66.87 258.93 71.21 260.54C72.73 261.18 74.18 261.99 75.75 262.76C76.1 263.15 76.34 263.62 76.43 264.13Z" fill="#4E29A9"/>
        <path d="M89.27 253.99C89.12 252.38 88.87 250.8 88.72 249.2C88.83 242.91 90.27 237.38 96.33 234.03C96.43 233.99 96.94 233.65 96.94 233.65C98.39 232.92 99.91 232.33 101.48 231.88C104.13 231.15 104.73 231.44 105.01 234.1C105.21 235.87 105.22 237.66 105.04 239.43C105.06 239.48 105.06 239.53 105.04 239.58C105.02 239.63 104.98 239.67 104.94 239.69C104.69 242.37 103.84 244.95 102.46 247.25C101.08 249.56 99.2 251.52 96.96 253.01C96.13 253.68 95.22 254.24 94.24 254.65C93.4 255.04 92.51 255.31 91.59 255.43C90.83 255.55 89.37 254.98 89.27 253.99Z" fill="#FAF8F8"/>
        <path d="M90 241.28C91.14 238.16 93.4 235.58 96.34 234.03C96.44 233.99 96.96 233.65 96.96 233.65C98.17 233.04 99.42 232.53 100.71 232.11C102.51 233.05 104.01 234.47 105.05 236.21C105.14 237.27 105.09 238.34 104.9 239.39C104.92 239.44 104.92 239.49 104.9 239.54C104.88 239.59 104.84 239.63 104.8 239.65C104.37 243.52 102.77 247.18 100.22 250.13C98.38 249.47 96.62 248.61 94.98 247.55C95.68 246.35 96.85 242.72 95.05 242.17C93.55 241.77 91.79 243.33 91.51 244.45C91.1 243.53 90.51 242.45 90 241.28Z" fill="#4E29A9"/>
        <path d="M71.33 275.69C70.08 276.41 68.96 277.35 68.04 278.47C67.53 279.06 66.9 279.68 67.7 280.41C68.51 281.14 69.05 280.37 69.51 279.79C70.87 278.39 72.35 277.11 73.94 275.97C74.7 275.31 76.43 274.44 75.53 273.34C75.09 272.77 74.47 272.99 74 273.4C73.08 274.11 72.23 274.9 71.33 275.69Z" fill="#1A2B44"/>
        <path d="M102.1 254.98C102.66 253.64 103.45 252.42 104.44 251.36C104.96 250.78 105.5 250.07 106.32 250.78C107.15 251.49 106.45 252.12 105.94 252.66C104.72 254.19 103.64 255.82 102.71 257.54C102.15 258.38 101.51 260.21 100.3 259.45C99.68 259.09 99.82 258.44 100.17 257.93C100.75 256.92 101.42 255.97 102.1 254.98Z" fill="#1A2B44"/>
        <path d="M76.2199 275.79C75.9999 275.82 75.7999 275.93 75.6499 276.09C74.3999 278.42 73.4599 280.91 72.8599 283.48C72.7499 284.17 72.9099 284.84 73.6199 284.98C74.3399 285.12 74.6399 284.59 74.7699 283.98C75.3099 281.76 76.0999 279.6 77.1299 277.55C77.4399 276.92 77.5399 276.33 76.8699 275.9C76.6699 275.8 76.4399 275.76 76.2199 275.79Z" fill="#1A2B44"/>
        <path d="M102.82 259.83C102.82 259.61 102.9 259.39 103.04 259.22C105.19 257.68 107.54 256.43 110.02 255.51C110.7 255.31 111.37 255.38 111.61 256.07C111.84 256.76 111.35 257.13 110.76 257.33C108.62 258.15 106.58 259.21 104.69 260.49C104.1 260.88 103.53 261.05 103.02 260.44C102.88 260.26 102.81 260.05 102.82 259.83Z" fill="#1A2B44"/>
        <path d="M263.39 351.64C263.56 351.64 263.72 351.62 263.89 351.58C264.96 351.3 265.6 350.21 265.32 349.14C264.02 344.14 233.16 226.33 204.15 205.44C197.46 200.62 190.27 157.21 183.93 118.9C178.61 86.7903 173.11 53.5903 167.08 34.9803C153.35 -7.39972 140.21 -25.4397 139.65 -26.1897C138.99 -27.0797 137.74 -27.2597 136.85 -26.6097C135.96 -25.9497 135.77 -24.6997 136.43 -23.8097C136.56 -23.6297 149.77 -5.44972 163.27 36.2103C169.21 54.5403 174.68 87.5903 179.98 119.55C188.57 171.41 194.33 203.29 201.81 208.68C229.66 228.73 261.13 348.93 261.45 350.14C261.69 351.04 262.5 351.64 263.39 351.64Z" fill="url(#paint5_linear_1634_7263)"/>
        <path d="M203.62 184.701C203.62 184.701 213.32 194.741 210.26 199.341C207.2 203.941 201.6 210.431 199.43 208.891C197.26 207.361 205.14 195.041 205.14 195.041L204.66 193.001C204.66 193.001 198.47 206.091 194.38 205.061C190.29 204.041 201.78 188.151 201.78 188.151L201.46 187.061C201.46 187.061 200.79 190.951 198.8 194.261C196.73 197.711 193.29 200.601 191.5 200.211C187.99 199.441 195.61 189.681 195.61 189.681L201.87 180.801L203.62 184.701Z" fill="url(#paint6_linear_1634_7263)"/>
        <path d="M115.87 450.471C116.34 450.471 116.82 450.371 117.29 450.161C118.3 449.711 118.75 448.521 118.29 447.521C117.89 446.631 116.92 446.181 116.01 446.391C113.74 443.951 111.85 427.291 111.48 412.711L111.46 411.921L110.91 411.361C110.77 411.211 96.3101 396.081 85.8801 358.081C75.2601 319.341 41.2401 228.321 40.8901 227.401L40.5001 226.361L39.4101 226.141C39.1701 226.091 33.3601 224.811 33.3601 219.421C33.3601 218.631 33.7401 215.891 34.2201 212.431C36.0901 198.991 39.9701 171.031 40.3001 133.671C40.7101 87.2605 35.4301 42.7505 24.6101 1.38052C24.3301 0.310518 23.2401 -0.32948 22.1701 -0.0494802C21.1001 0.23052 20.4601 1.32052 20.7401 2.39052C37.4801 66.4005 40.6801 136.891 30.2501 211.881C29.6701 216.051 29.3501 218.351 29.3501 219.421C29.3501 225.631 34.1801 228.721 37.5001 229.771C41.2001 239.691 72.0301 322.721 82.0201 359.121C91.7301 394.491 104.65 410.361 107.5 413.551C107.8 424.011 109.02 446.751 114.06 449.921C114.64 450.291 115.25 450.471 115.87 450.471Z" fill="url(#paint7_linear_1634_7263)"/>
        <path d="M28.3 246.75C28.41 246.36 28.57 245.92 28.77 245.44C26.88 241.93 21.97 232.19 22.52 226.41C22.95 221.94 31.63 218.8 38.07 217.07C41.69 216.1 45.3299 218.62 45.7299 222.35L44.81 226.52L46.9399 230.54L46.2999 241.46C45.3699 240.54 43.01 241.03 42.28 242.23L43.24 244.93C42.79 267.47 35.79 323.95 35.79 323.95C39.53 340.29 18.25 331.64 12.64 324.97C7.01995 318.28 26.59 252.79 28.3 246.75Z" fill="url(#paint8_linear_1634_7263)"/>
        <path d="M141.24 311.261C142.16 315.981 143.95 320.871 146.13 325.431C146.17 325.511 146.14 325.621 146.06 325.671C145.5 326.041 145.27 326.761 145.49 327.361C145.53 327.451 145.47 327.521 145.38 327.571L143.45 328.611C143.36 328.651 143.26 328.641 143.21 328.561C142.79 327.931 141.96 327.651 141.28 327.981C140.6 328.311 140.3 329.151 140.61 329.921C140.65 330.021 140.62 330.141 140.54 330.191L138.61 331.231C138.53 331.281 138.4 331.211 138.34 331.121C137.9 330.441 137.17 330.131 136.52 330.321C136.43 330.351 136.33 330.291 136.28 330.191C133.74 324.851 131.69 319.371 130.49 313.311C130.47 313.201 130.51 313.091 130.61 313.061C131.24 312.831 131.65 312.111 131.6 311.321C131.59 311.211 131.66 311.111 131.76 311.101L133.93 310.781C134.03 310.771 134.12 310.831 134.15 310.941C134.37 311.741 135.09 312.261 135.84 312.111C136.59 311.971 137.1 311.261 137.06 310.501C137.05 310.401 137.12 310.311 137.22 310.301L139.39 309.981C139.49 309.971 139.58 310.021 139.61 310.111C139.79 310.741 140.39 311.161 141.06 311.121C141.14 311.111 141.22 311.171 141.24 311.261Z" fill="#D0A0F5"/>
        <path d="M135.95 318.681C135.01 318.571 134.01 318.361 133.06 318.401C132.72 317.251 132.41 316.081 132.14 314.901C132.05 314.541 132.25 314.181 132.56 314.121L139.62 312.601C139.94 312.531 140.23 312.731 140.31 313.031C140.8 315.151 141.45 317.271 142.2 319.371C141.3 319.271 140.39 319.181 139.48 319.081C138.3 318.941 137.13 318.811 135.95 318.681Z" fill="white"/>
        <path d="M133.84 320.861L133.73 320.531C134.22 320.531 134.75 320.611 135.26 320.681C134.79 320.731 134.31 320.791 133.84 320.861Z" fill="white"/>
        <path d="M140.12 324.411C140.6 324.481 141.14 324.511 141.64 324.611C141.77 325.021 142.13 325.321 142.65 325.171C143.08 325.051 143.33 324.931 143.6 324.551C143.99 324.001 143.7 323.341 143.16 323.051C142.55 322.711 141.86 322.631 141.18 322.531C141.78 322.521 142.6 322.481 143.34 322.311C143.67 323.111 144.01 323.901 144.37 324.681C144.5 324.981 144.38 325.321 144.09 325.461L137.55 328.521C137.26 328.661 136.9 328.501 136.75 328.171C136.06 326.651 135.42 325.121 134.82 323.561C135.79 323.721 136.76 323.871 137.72 324.021C138.52 324.161 139.32 324.291 140.12 324.411Z" fill="white"/>
        <path d="M141.18 322.541C141.86 322.641 142.55 322.721 143.16 323.061C143.7 323.351 143.99 324.011 143.6 324.561C143.33 324.941 143.08 325.061 142.65 325.181C142.13 325.331 141.77 325.031 141.64 324.621C141.14 324.521 140.6 324.491 140.12 324.421C139.32 324.291 138.52 324.171 137.72 324.041C136.76 323.891 135.79 323.731 134.82 323.581C134.48 322.691 134.15 321.781 133.84 320.871C134.31 320.801 134.78 320.741 135.26 320.701C134.75 320.631 134.22 320.551 133.73 320.551C133.49 319.851 133.27 319.131 133.06 318.411C134.02 318.381 135.01 318.591 135.95 318.691C137.13 318.821 138.3 318.951 139.46 319.081C140.37 319.181 141.28 319.271 142.18 319.371C142.54 320.361 142.92 321.361 143.33 322.341C142.6 322.491 141.78 322.531 141.18 322.541Z" fill="#BC62FF"/>
        <path d="M143.59 298C142.43 299.01 141.6 300.22 141.14 302.02C140.64 303.76 140.6 305.98 140.8 308.25C140.81 308.33 140.74 308.41 140.65 308.44C140 308.59 139.54 309.15 139.55 309.8C139.55 309.89 139.48 309.97 139.38 309.99L137.21 310.31C137.11 310.32 137.02 310.26 137 310.17C136.82 309.43 136.13 308.9 135.37 308.98C134.61 309.05 134.07 309.75 134.09 310.59C134.09 310.7 134.02 310.79 133.93 310.8L131.76 311.12C131.66 311.13 131.57 311.06 131.55 310.95C131.37 310.17 130.78 309.59 130.1 309.54C130 309.53 129.93 309.44 129.92 309.32C129.65 306.14 129.62 302.77 130.59 299.21C131.03 297.45 131.8 295.65 132.82 293.97C133.83 292.27 135.23 290.8 136.73 289.52C136.85 289.43 136.99 289.41 137.06 289.48C137.59 289.92 138.52 289.89 139.33 289.42C139.45 289.36 139.58 289.39 139.63 289.47L140.77 291.34C140.82 291.42 140.79 291.53 140.7 291.6C140.01 292.19 139.85 293.08 140.33 293.66C140.81 294.24 141.65 294.42 142.26 294.09C142.35 294.05 142.45 294.09 142.5 294.18L143.64 296.05C143.69 296.13 143.68 296.23 143.62 296.27C143.25 296.64 143.25 297.28 143.62 297.83C143.64 297.88 143.64 297.96 143.59 298Z" fill="#F5E4A0"/>
        <path d="M135.14 298.031C134.48 297.301 133.96 296.421 133.27 295.721C133.93 294.401 134.84 293.171 135.85 292.051C136.15 291.701 136.63 291.651 136.84 291.881L141.86 297.071C142.09 297.311 142.11 297.601 141.97 297.771C140.93 298.911 140.2 300.361 139.79 302.111C139.08 301.631 138.37 301.091 137.67 300.501C136.77 299.751 135.96 298.941 135.14 298.031Z" fill="white"/>
        <path d="M132.06 298.62C132.09 298.49 132.15 298.36 132.19 298.23C132.56 298.56 132.93 298.98 133.3 299.36C132.9 299.11 132.48 298.86 132.06 298.62Z" fill="white"/>
        <path d="M135.64 305.23C136.05 305.49 136.51 305.73 136.94 306.01C136.91 306.42 137.12 306.82 137.65 306.88C138.1 306.93 138.37 306.91 138.77 306.68C139.35 306.35 139.31 305.71 138.96 305.27C138.55 304.77 137.94 304.42 137.39 304.05C137.92 304.29 138.68 304.59 139.42 304.75L139.38 305.89L139.41 307.05C139.42 307.34 139.19 307.61 138.87 307.63L131.67 308.12C131.35 308.14 131.06 307.85 131.04 307.45C130.96 305.65 131.02 303.79 131.29 301.9C132.05 302.58 132.85 303.22 133.62 303.82C134.27 304.33 134.97 304.79 135.64 305.23Z" fill="white"/>
        <path d="M137.4 304.051C137.94 304.421 138.56 304.771 138.97 305.271C139.32 305.701 139.36 306.351 138.78 306.681C138.38 306.911 138.11 306.931 137.66 306.881C137.13 306.831 136.91 306.431 136.95 306.011C136.51 305.731 136.05 305.491 135.65 305.231C134.99 304.791 134.29 304.321 133.65 303.831C132.88 303.231 132.08 302.591 131.32 301.911L131.62 300.271L132.07 298.621C132.49 298.861 132.91 299.101 133.32 299.361C132.95 298.981 132.57 298.561 132.21 298.231C132.52 297.381 132.84 296.541 133.29 295.721C133.98 296.421 134.5 297.301 135.16 298.031C135.98 298.941 136.79 299.751 137.68 300.501C138.38 301.091 139.09 301.631 139.8 302.111C139.73 302.541 139.64 302.961 139.57 303.401C139.54 303.851 139.46 304.291 139.45 304.751C138.69 304.591 137.93 304.301 137.4 304.051Z" fill="#FFE268"/>
        <path d="M156.81 298.041C154.63 297.051 152.51 296.371 150.6 296.141C148.68 295.911 147.06 296.191 145.44 296.891C145.38 296.911 145.3 296.871 145.25 296.791C144.91 296.201 144.34 295.951 143.83 296.131C143.76 296.161 143.67 296.111 143.62 296.031L142.48 294.161C142.43 294.081 142.45 293.971 142.52 293.921C143.1 293.521 143.32 292.661 143.02 291.991C142.7 291.281 141.85 291.041 141.03 291.391C140.93 291.441 140.81 291.411 140.76 291.321L139.62 289.451C139.57 289.371 139.61 289.251 139.72 289.181C140.48 288.671 140.9 287.851 140.75 287.191C140.73 287.101 140.81 286.991 140.94 286.931C144.32 285.391 148.32 284.821 151.85 285.281C155.4 285.711 158.53 286.831 161.34 288.091C161.44 288.141 161.5 288.241 161.48 288.341C161.3 288.991 161.65 289.741 162.31 290.141C162.41 290.201 162.44 290.311 162.4 290.391L161.42 292.351C161.38 292.441 161.27 292.481 161.17 292.441C160.39 292.161 159.56 292.461 159.25 293.151C158.94 293.841 159.22 294.671 159.87 295.081C159.96 295.131 159.99 295.241 159.94 295.331L158.96 297.291C158.92 297.381 158.82 297.421 158.73 297.391C158.1 297.171 157.4 297.421 157.05 297.991C156.99 298.051 156.89 298.081 156.81 298.041Z" fill="#D0A0F5"/>
        <path d="M153.61 289.601C154.19 288.841 154.93 288.081 155.42 287.271C156.04 287.461 156.67 287.641 157.28 287.841L159.06 288.501C159.41 288.651 159.6 289.011 159.47 289.301L156.67 295.951C156.55 296.241 156.22 296.391 155.93 296.261C153.99 295.481 152.07 294.941 150.28 294.811C150.66 293.991 151.11 293.261 151.58 292.481C152.2 291.491 152.88 290.531 153.61 289.601Z" fill="white"/>
        <path d="M152.59 286.671L152.98 286.731C152.72 287.161 152.38 287.601 152.06 288.011C152.24 287.571 152.42 287.121 152.59 286.671Z" fill="white"/>
        <path d="M146.64 291.25C146.47 291.69 146.35 292.2 146.19 292.69C145.81 292.76 145.49 293.05 145.59 293.58C145.67 294.02 145.76 294.28 146.06 294.62C146.49 295.12 146.98 294.92 147.29 294.52C147.64 294.04 147.83 293.36 148.09 292.76C147.95 293.32 147.82 294.14 147.83 294.89C147.51 294.95 147.18 294.97 146.87 295.06L145.93 295.32C145.7 295.4 145.42 295.25 145.31 294.95L142.73 288.21C142.62 287.92 142.85 287.53 143.27 287.38C145.21 286.75 147.24 286.43 149.25 286.4C148.67 287.28 148.14 288.15 147.67 289.01C147.26 289.75 146.92 290.52 146.64 291.25Z" fill="white"/>
        <path d="M148.09 292.751C147.84 293.351 147.64 294.031 147.29 294.511C146.98 294.911 146.49 295.111 146.06 294.611C145.76 294.271 145.67 294.011 145.59 293.571C145.49 293.041 145.8 292.751 146.19 292.681C146.34 292.191 146.47 291.691 146.64 291.241C146.92 290.501 147.26 289.731 147.65 289.001C148.12 288.141 148.65 287.261 149.23 286.391C150.36 286.421 151.5 286.481 152.58 286.661C152.41 287.111 152.24 287.561 152.05 288.001C152.37 287.581 152.72 287.151 152.97 286.721C153.8 286.861 154.61 287.061 155.41 287.261C154.92 288.071 154.17 288.831 153.6 289.591C152.88 290.521 152.2 291.481 151.58 292.491C151.11 293.271 150.66 294.001 150.28 294.821C149.43 294.761 148.61 294.771 147.81 294.881C147.82 294.141 147.94 293.311 148.09 292.751Z" fill="#BC62FF"/>
        <path d="M173.73 307.811C168.68 304.971 164.14 301.871 159.67 299.471C159.59 299.431 159.55 299.331 159.58 299.241C159.81 298.611 159.58 297.901 159.02 297.521C158.94 297.461 158.91 297.361 158.96 297.271L159.94 295.311C159.98 295.221 160.09 295.181 160.18 295.221C160.9 295.501 161.73 295.231 162.09 294.561C162.45 293.891 162.19 293.051 161.5 292.601C161.41 292.541 161.38 292.431 161.42 292.351L162.4 290.391C162.44 290.301 162.56 290.271 162.66 290.311C163.37 290.601 164.16 290.421 164.57 289.881C164.63 289.801 164.74 289.791 164.84 289.841C170.04 292.651 174.57 295.761 179.09 298.281C179.17 298.331 179.21 298.431 179.18 298.521C178.94 299.141 179.16 299.871 179.73 300.271C179.81 300.321 179.84 300.431 179.79 300.521L178.76 302.451C178.71 302.541 178.61 302.571 178.51 302.541C177.79 302.241 176.95 302.491 176.58 303.151C176.21 303.811 176.45 304.671 177.12 305.131C177.21 305.191 177.24 305.301 177.19 305.381L176.16 307.311C176.11 307.401 176 307.431 175.9 307.391C175.2 307.101 174.42 307.261 174 307.791C173.94 307.851 173.83 307.861 173.73 307.811Z" fill="#F5A0D1"/>
        <path d="M171.91 298.632C172.69 298.082 173.54 297.562 174.21 296.892C175.15 297.462 176.09 298.042 177.03 298.572C177.32 298.742 177.42 299.102 177.26 299.372L173.66 305.632C173.5 305.912 173.12 305.992 172.81 305.812C170.69 304.572 168.65 303.312 166.64 302.072C167.42 301.582 168.19 301.102 168.98 300.602C169.97 299.962 170.95 299.312 171.91 298.632Z" fill="white"/>
        <path d="M172.17 295.631L172.45 295.801C172.08 296.121 171.63 296.411 171.2 296.681C171.53 296.341 171.86 295.991 172.17 295.631Z" fill="white"/>
        <path d="M165.14 296.751C164.71 296.981 164.26 297.281 163.79 297.491C163.44 297.231 162.97 297.201 162.64 297.631C162.36 297.981 162.23 298.231 162.24 298.691C162.25 299.371 162.89 299.731 163.51 299.651C164.21 299.551 164.82 299.221 165.43 298.891C164.95 299.261 164.32 299.781 163.83 300.351C163.07 299.901 162.31 299.451 161.55 299.031C161.26 298.871 161.16 298.521 161.31 298.241L164.79 291.921C164.94 291.641 165.33 291.561 165.64 291.731C167.08 292.541 168.48 293.371 169.85 294.211C169.01 294.701 168.15 295.171 167.29 295.621C166.56 296.001 165.85 296.371 165.14 296.751Z" fill="white"/>
        <path d="M165.42 298.891C164.81 299.221 164.2 299.551 163.5 299.651C162.89 299.731 162.24 299.371 162.23 298.691C162.22 298.231 162.35 297.981 162.63 297.631C162.96 297.201 163.43 297.241 163.78 297.491C164.25 297.281 164.7 296.981 165.13 296.751C165.84 296.371 166.56 296.001 167.27 295.621C168.13 295.161 168.99 294.691 169.83 294.211L172.16 295.641C171.85 296.001 171.52 296.351 171.19 296.691C171.62 296.421 172.07 296.131 172.44 295.811L174.22 296.901C173.55 297.571 172.69 298.091 171.92 298.641C170.96 299.321 169.98 299.971 168.99 300.621C168.21 301.111 167.43 301.601 166.65 302.091L163.81 300.371C164.31 299.781 164.94 299.261 165.42 298.891Z" fill="#FF64BC"/>
        <path d="M196.04 313.761C192.51 314.211 189 313.811 185.84 312.991C182.66 312.171 179.78 310.951 177.1 309.611C177 309.561 176.94 309.461 176.97 309.371C177.17 308.731 176.87 307.981 176.23 307.561C176.14 307.501 176.1 307.391 176.15 307.301L177.18 305.371C177.23 305.281 177.33 305.251 177.43 305.291C178.19 305.591 179.03 305.331 179.37 304.651C179.71 303.971 179.46 303.131 178.81 302.701C178.73 302.641 178.7 302.541 178.74 302.451L179.77 300.521C179.82 300.431 179.92 300.401 180.01 300.431C180.65 300.681 181.36 300.461 181.74 299.911C181.79 299.831 181.9 299.801 181.98 299.841C186.44 302.091 190.83 303.411 194.66 302.921C194.73 302.911 194.8 302.961 194.82 303.051C194.97 303.701 195.49 304.131 196.07 304.121C196.15 304.121 196.23 304.191 196.25 304.281L196.73 306.421C196.75 306.511 196.7 306.611 196.61 306.631C195.92 306.831 195.43 307.551 195.53 308.311C195.62 309.061 196.36 309.571 197.23 309.511C197.34 309.501 197.44 309.571 197.46 309.661L197.94 311.801C197.96 311.891 197.89 311.991 197.77 312.021C196.93 312.251 196.31 312.881 196.27 313.561C196.27 313.651 196.17 313.741 196.04 313.761Z" fill="#D0A0F5"/>
        <path d="M189.5 306.661C190 305.871 190.53 305.061 190.82 304.151C191.27 304.181 191.72 304.271 192.17 304.271C192.61 304.271 193.06 304.301 193.5 304.281C193.77 304.261 194 304.501 194.02 304.821L194.51 312.021C194.53 312.341 194.21 312.621 193.79 312.651C190.9 312.751 188.08 312.311 185.48 311.581C186.17 310.911 186.81 310.231 187.41 309.521C188.18 308.631 188.89 307.631 189.5 306.661Z" fill="white"/>
        <path d="M188.85 303.791C188.94 303.811 189.03 303.841 189.12 303.851C188.9 304.291 188.6 304.691 188.3 305.091C188.5 304.671 188.68 304.231 188.85 303.791Z" fill="white"/>
        <path d="M182.62 306.581C182.22 306.861 181.81 307.201 181.36 307.471C180.96 307.251 180.47 307.251 180.16 307.701C179.91 308.071 179.79 308.331 179.87 308.801C179.98 309.491 180.76 309.821 181.41 309.681C182.16 309.511 182.74 309.081 183.3 308.661C182.89 309.101 182.33 309.711 181.91 310.351C180.95 309.991 180.06 309.571 179.15 309.171C178.82 309.011 178.66 308.641 178.8 308.361L181.92 301.851C182.06 301.561 182.4 301.441 182.69 301.581C184 302.181 185.32 302.741 186.62 303.151C185.97 303.841 185.27 304.501 184.54 305.101C183.92 305.611 183.28 306.111 182.62 306.581Z" fill="white"/>
        <path d="M183.29 308.661C182.73 309.081 182.15 309.511 181.4 309.681C180.76 309.811 179.97 309.481 179.86 308.801C179.79 308.331 179.9 308.081 180.15 307.701C180.46 307.251 180.94 307.251 181.35 307.471C181.81 307.211 182.22 306.861 182.61 306.581C183.27 306.111 183.91 305.611 184.53 305.101C185.27 304.501 185.96 303.841 186.61 303.151C187.36 303.411 188.11 303.601 188.85 303.791C188.68 304.231 188.49 304.661 188.29 305.091C188.59 304.691 188.9 304.291 189.11 303.851C189.68 303.941 190.25 304.091 190.82 304.141C190.53 305.051 190 305.861 189.5 306.651C188.89 307.621 188.18 308.621 187.42 309.511C186.82 310.211 186.18 310.901 185.49 311.571C184.26 311.211 183.05 310.811 181.9 310.351C182.32 309.721 182.88 309.111 183.29 308.661Z" fill="#BC62FF"/>
        <path d="M143.03 316.24C143.88 317.39 138.52 323.67 127.34 324.59L135.32 339.81C136.76 342.56 139.15 343.47 141.44 342.65C144.5 341.55 147.06 340.06 149.66 337.96C151.42 336.53 151.91 334.24 150.63 331.65L143.03 316.24Z" fill="#2FBD6D"/>
        <path d="M330.08 389.47C329.74 389.8 316.72 422.47 311.53 422.42C306.34 422.38 301.15 419.59 300.81 416.35C300.47 413.12 306.09 379.24 306.09 379.24L330.08 389.47Z" fill="#210063"/>
        <path d="M259.1 444.941C259.1 444.941 255.27 461.471 252.21 463.511C249.15 465.551 234.81 473.711 231.53 471.341C228.25 468.971 220.48 433.251 225.46 424.151C230.44 415.051 259.1 444.941 259.1 444.941Z" fill="#210063"/>
        <path d="M309.15 354.74C310.15 354.97 359.45 371.85 359.45 371.85C359.45 371.85 364.05 369.04 375.28 366.49C386.51 363.94 396.73 358.58 405.15 354.75C413.58 350.92 424.04 347.6 428.89 344.79C433.74 341.98 434 339.94 436.04 337.64C438.08 335.34 449.57 334.07 444.98 346.83C440.38 359.6 376.04 421.64 370.68 420.11C365.32 418.58 356.64 408.37 354.08 404.54C351.52 400.71 342.85 394.58 339.27 393.82C335.7 393.05 287.1 384.71 276.67 378.16C266.25 371.6 275.96 347.08 309.15 354.74Z" fill="url(#paint9_linear_1634_7263)"/>
        <path d="M166.65 344.361C166.65 344.361 209.58 333.401 250.43 336.161C291.28 338.921 324.47 358.831 324.47 358.831C316.12 356.081 295.95 417.391 304.3 420.131L278.77 405.291C278.77 405.291 280.68 407.081 277.75 407.201C274.81 407.331 271.88 400.101 271.88 400.101C271.88 400.101 273.41 402.991 270.99 403.241C268.56 403.501 261.81 402.351 261.81 402.351L126.45 377.201C131.85 363.851 151.09 351.421 166.65 344.361Z" fill="#3600A1"/>
        <path d="M371.96 422.49C371.96 422.49 354.94 417.38 358.51 403.94C362.08 390.49 366.17 382.15 366.17 382.15C366.17 382.15 370.43 363.26 377.57 360.36C384.72 357.47 390.51 359 390.51 359C390.51 359 385.91 363.43 388.81 368.53L384.21 380.27L387.1 398.31L378.08 407.33C378.08 407.33 367.7 399.67 365.99 401.03C364.29 402.39 371.78 414.14 371.78 414.14C371.78 414.14 371.1 418.06 371.96 422.49Z" fill="url(#paint10_linear_1634_7263)"/>
        <path d="M386.65 374.04L401.06 370.24L404.29 381.47L430.33 355.77C430.33 355.77 420.97 350.83 423.18 346.24L406.33 352.37L402.24 362.07L386.64 368.71V374.04H386.65Z" fill="url(#paint11_linear_1634_7263)"/>
        <path d="M427.62 356.45C427.62 356.45 442.43 348.96 442.77 348.45C443.11 347.94 445.49 343.68 451.96 346.24C458.43 348.79 458.26 356.45 458.26 356.45C458.26 356.45 449.3 362.76 443.2 368.54C443.2 368.54 411.2 388.03 403.37 396.88C395.54 405.73 384.39 421.7 379.37 425.22C374.27 428.79 369.16 428.51 369 419.41C370.93 412.76 380.64 403.26 380.64 403.26L406.51 377.95L427.62 356.45Z" fill="#5C00CC"/>
        <path d="M241.72 390.01L299.42 426.01L341.04 415.8L342.68 425.24L335.156 455.466L330.57 466.87L295.34 473.51C295.34 473.51 227.68 434.45 214.15 428.06C200.61 421.67 200.87 377.24 241.72 390.01Z" fill="url(#paint12_linear_1634_7263)"/>
        <path d="M112.32 402.66C104.79 405.68 109.5 383.78 124.56 374.83C125.57 374.23 137.58 368.87 152.22 361.04C166.86 353.21 188.31 351.51 200.22 358.83C212.13 366.15 255.03 397.21 255.03 397.21C255.03 397.21 235.8 400.53 234.35 403.59C232.9 406.65 220.65 435.93 231.54 471.33C231.54 471.33 180.91 435.04 179.33 429.18C177.75 423.33 176.39 415.16 176.39 415.16C176.39 415.16 167.79 415.16 165.73 402.75C165.73 402.75 166.52 409.2 165.59 409.03C164.65 408.86 156.41 401.01 156.41 401.01L112.32 402.66Z" fill="#3F00BD"/>
        <path d="M290.4 472.47C290.4 472.47 284.1 467.02 286.31 462.94C288.52 458.85 295.33 459.37 295.33 459.37C295.33 459.37 288.86 436.39 299.76 424.14C310.65 411.88 305.21 426.52 303.85 433.16C302.49 439.8 302.35 452.05 306.42 455.29C310.49 458.52 312.87 458.18 312.87 458.18V445.94C312.87 445.94 318.15 422.66 323.93 418.38C329.71 414.1 338.26 416.48 338.26 416.48C338.26 416.48 329.03 421.93 325.63 435.03C322.23 448.14 322.57 456.48 322.57 456.48C322.57 456.48 328.872 468.949 330.062 466.559C331.252 464.179 334.31 455.38 341.04 444.15C347.76 432.92 357.64 420.23 362.57 420.74C365.12 421.61 363.25 427.38 363.25 427.38C363.25 427.38 355.25 432.83 350.14 440.15C345.03 447.47 334.31 470.11 333.46 472.49C332.61 474.87 323.59 486.28 320.18 485.6C316.78 484.92 309.12 476.24 309.12 476.24C309.12 476.24 292.8 475.68 290.4 472.47Z" fill="url(#paint13_linear_1634_7263)"/>
        <path d="M336.87 420.09C337.73 423.36 343.07 426.03 348.15 424.69C353.23 423.35 356.12 418.51 355.26 415.24C354.4 411.97 350.2 411.47 345.12 412.81C340.04 414.15 336.01 416.82 336.87 420.09Z" fill="url(#paint14_linear_1634_7263)"/>
        <path d="M335.58 427.901C335.15 430.431 338 433.941 341.92 434.611C345.84 435.281 349.35 432.851 349.79 430.321C350.23 427.791 347.48 426.131 343.56 425.461C339.63 424.801 336.01 425.381 335.58 427.901Z" fill="url(#paint15_linear_1634_7263)"/>
        <path d="M332.7 437.08C332.31 439.36 334.35 442.43 337.27 442.93C340.19 443.43 342.88 441.16 343.27 438.88C343.66 436.6 341.65 435.19 338.73 434.69C335.81 434.19 333.09 434.8 332.7 437.08Z" fill="url(#paint16_linear_1634_7263)"/>
        <path d="M328.217 446.098C327.827 448.378 330.007 451.478 333.087 451.998C336.167 452.528 338.977 450.278 339.367 447.998C339.757 445.718 337.627 444.288 334.547 443.758C331.467 443.248 328.607 443.828 328.217 446.098Z" fill="url(#paint17_linear_1634_7263)"/>
        <path d="M327.807 453.698C327.537 455.288 329.057 457.448 331.197 457.808C333.347 458.178 335.307 456.608 335.577 455.018C335.847 453.428 334.367 452.428 332.217 452.068C330.067 451.708 328.077 452.108 327.807 453.698Z" fill="url(#paint18_linear_1634_7263)"/>
    </g>
    <defs>
        <linearGradient id="paint0_linear_1634_7263" x1="227.432" y1="524.019" x2="164.952" y2="379.788" gradientUnits="userSpaceOnUse">
            <stop offset="0.02" stop-color="#FF7400"/>
            <stop offset="0.03" stop-color="#FE7900"/>
            <stop offset="0.07" stop-color="#FC8A00"/>
            <stop offset="0.13" stop-color="#FB9500"/>
            <stop offset="0.21" stop-color="#FA9C00"/>
            <stop offset="0.43" stop-color="#FA9E00"/>
            <stop offset="0.62" stop-color="#FA9A00"/>
            <stop offset="0.9074" stop-color="#A55D00"/>
        </linearGradient>
        <linearGradient id="paint1_linear_1634_7263" x1="216.628" y1="224.242" x2="135.344" y2="247.128" gradientUnits="userSpaceOnUse">
            <stop offset="0.02" stop-color="#FF7400"/>
            <stop offset="0.03" stop-color="#FE7900"/>
            <stop offset="0.07" stop-color="#FC8A00"/>
            <stop offset="0.13" stop-color="#FB9500"/>
            <stop offset="0.21" stop-color="#FA9C00"/>
            <stop offset="0.43" stop-color="#FA9E00"/>
            <stop offset="0.62" stop-color="#FA9A00"/>
            <stop offset="0.78" stop-color="#FC9000"/>
            <stop offset="0.94" stop-color="#FE7D00"/>
            <stop offset="1" stop-color="#FF7400"/>
        </linearGradient>
        <linearGradient id="paint2_linear_1634_7263" x1="78.377" y1="320.868" x2="16.3988" y2="338.319" gradientUnits="userSpaceOnUse">
            <stop offset="0.02" stop-color="#FF7400"/>
            <stop offset="0.03" stop-color="#FE7900"/>
            <stop offset="0.07" stop-color="#FC8A00"/>
            <stop offset="0.13" stop-color="#FB9500"/>
            <stop offset="0.21" stop-color="#FA9C00"/>
            <stop offset="0.43" stop-color="#FA9E00"/>
            <stop offset="0.62" stop-color="#FA9A00"/>
            <stop offset="0.78" stop-color="#FC9000"/>
            <stop offset="0.94" stop-color="#FE7D00"/>
            <stop offset="1" stop-color="#FF7400"/>
        </linearGradient>
        <linearGradient id="paint3_linear_1634_7263" x1="159.842" y1="297.908" x2="112.013" y2="339.951" gradientUnits="userSpaceOnUse">
            <stop stop-color="#259C56"/>
            <stop offset="0.5488" stop-color="#269E58"/>
            <stop offset="0.7833" stop-color="#29A55F"/>
            <stop offset="0.9576" stop-color="#2EB16C"/>
            <stop offset="1" stop-color="#30B570"/>
        </linearGradient>
        <linearGradient id="paint4_linear_1634_7263" x1="128.651" y1="240.647" x2="12.8064" y2="281.312" gradientUnits="userSpaceOnUse">
            <stop offset="0.02" stop-color="#FF7400"/>
            <stop offset="0.03" stop-color="#FE7900"/>
            <stop offset="0.07" stop-color="#FC8A00"/>
            <stop offset="0.13" stop-color="#FB9500"/>
            <stop offset="0.21" stop-color="#FA9C00"/>
            <stop offset="0.43" stop-color="#FA9E00"/>
            <stop offset="0.62" stop-color="#FA9A00"/>
            <stop offset="0.78" stop-color="#FC9000"/>
            <stop offset="0.94" stop-color="#FE7D00"/>
            <stop offset="1" stop-color="#FF7400"/>
        </linearGradient>
        <linearGradient id="paint5_linear_1634_7263" x1="200.711" y1="-26.999" x2="200.711" y2="351.64" gradientUnits="userSpaceOnUse">
            <stop offset="0.119792" stop-color="#A06625" stop-opacity="0"/>
            <stop offset="0.520833" stop-color="#A06625"/>
            <stop offset="1" stop-color="#A06625"/>
        </linearGradient>
        <linearGradient id="paint6_linear_1634_7263" x1="209.785" y1="192.537" x2="190.25" y2="198.037" gradientUnits="userSpaceOnUse">
            <stop offset="0.02" stop-color="#FF7400"/>
            <stop offset="0.03" stop-color="#FE7900"/>
            <stop offset="0.07" stop-color="#FC8A00"/>
            <stop offset="0.13" stop-color="#FB9500"/>
            <stop offset="0.21" stop-color="#FA9C00"/>
            <stop offset="0.43" stop-color="#FA9E00"/>
            <stop offset="0.62" stop-color="#FA9A00"/>
            <stop offset="0.78" stop-color="#FC9000"/>
            <stop offset="0.94" stop-color="#FE7D00"/>
            <stop offset="1" stop-color="#FF7400"/>
        </linearGradient>
        <linearGradient id="paint7_linear_1634_7263" x1="69.5724" y1="-0.115234" x2="69.5724" y2="450.471" gradientUnits="userSpaceOnUse">
            <stop offset="0.119792" stop-color="#A06625" stop-opacity="0"/>
            <stop offset="0.520833" stop-color="#A06625"/>
            <stop offset="1" stop-color="#A06625"/>
        </linearGradient>
        <linearGradient id="paint8_linear_1634_7263" x1="58.7857" y1="268.415" x2="1.03695" y2="284.675" gradientUnits="userSpaceOnUse">
            <stop offset="0.02" stop-color="#FF7400"/>
            <stop offset="0.03" stop-color="#FE7900"/>
            <stop offset="0.07" stop-color="#FC8A00"/>
            <stop offset="0.13" stop-color="#FB9500"/>
            <stop offset="0.21" stop-color="#FA9C00"/>
            <stop offset="0.43" stop-color="#FA9E00"/>
            <stop offset="0.62" stop-color="#FA9A00"/>
            <stop offset="0.78" stop-color="#FC9000"/>
            <stop offset="0.94" stop-color="#FE7D00"/>
            <stop offset="1" stop-color="#FF7400"/>
        </linearGradient>
        <linearGradient id="paint9_linear_1634_7263" x1="449.681" y1="353.445" x2="280.858" y2="400.979" gradientUnits="userSpaceOnUse">
            <stop offset="0.02" stop-color="#FF7400"/>
            <stop offset="0.03" stop-color="#FE7900"/>
            <stop offset="0.07" stop-color="#FC8A00"/>
            <stop offset="0.13" stop-color="#FB9500"/>
            <stop offset="0.21" stop-color="#FA9C00"/>
            <stop offset="0.43" stop-color="#FA9E00"/>
            <stop offset="0.62" stop-color="#FA9A00"/>
            <stop offset="0.78" stop-color="#FC9000"/>
            <stop offset="0.94" stop-color="#FE7D00"/>
            <stop offset="1" stop-color="#FF7400"/>
        </linearGradient>
        <linearGradient id="paint10_linear_1634_7263" x1="374.264" y1="358.596" x2="374.264" y2="422.49" gradientUnits="userSpaceOnUse">
            <stop stop-color="#751BE3"/>
            <stop offset="1" stop-color="#5C00CC"/>
        </linearGradient>
        <linearGradient id="paint11_linear_1634_7263" x1="408.485" y1="346.24" x2="408.485" y2="381.47" gradientUnits="userSpaceOnUse">
            <stop stop-color="#751BE3"/>
            <stop offset="1" stop-color="#5C00CC"/>
        </linearGradient>
        <linearGradient id="paint12_linear_1634_7263" x1="339.367" y1="409.865" x2="214.691" y2="444.969" gradientUnits="userSpaceOnUse">
            <stop offset="0.02" stop-color="#FF7400"/>
            <stop offset="0.03" stop-color="#FE7900"/>
            <stop offset="0.07" stop-color="#FC8A00"/>
            <stop offset="0.13" stop-color="#FB9500"/>
            <stop offset="0.21" stop-color="#FA9C00"/>
            <stop offset="0.43" stop-color="#FA9E00"/>
            <stop offset="0.62" stop-color="#FA9A00"/>
            <stop offset="0.78" stop-color="#FC9000"/>
            <stop offset="0.94" stop-color="#FE7D00"/>
            <stop offset="1" stop-color="#FF7400"/>
        </linearGradient>
        <linearGradient id="paint13_linear_1634_7263" x1="324.876" y1="415.82" x2="324.876" y2="485.629" gradientUnits="userSpaceOnUse">
            <stop stop-color="#751BE3"/>
            <stop offset="1" stop-color="#5C00CC"/>
        </linearGradient>
        <linearGradient id="paint14_linear_1634_7263" x1="355.413" y1="418.605" x2="340.398" y2="418.581" gradientUnits="userSpaceOnUse">
            <stop offset="0.02" stop-color="#FF7400"/>
            <stop offset="0.03" stop-color="#FE7900"/>
            <stop offset="0.07" stop-color="#FC8A00"/>
            <stop offset="0.557292" stop-color="#FB9500"/>
            <stop offset="0.94" stop-color="#FE7D00"/>
            <stop offset="1" stop-color="#FD8000"/>
        </linearGradient>
        <linearGradient id="paint15_linear_1634_7263" x1="349.838" y1="429.984" x2="335.541" y2="429.943" gradientUnits="userSpaceOnUse">
            <stop offset="0.02" stop-color="#FF7400"/>
            <stop offset="0.03" stop-color="#FE7900"/>
            <stop offset="0.07" stop-color="#FC8A00"/>
            <stop offset="0.557292" stop-color="#FB9500"/>
            <stop offset="0.94" stop-color="#FE7D00"/>
            <stop offset="1" stop-color="#FF7400"/>
        </linearGradient>
        <linearGradient id="paint16_linear_1634_7263" x1="343.32" y1="438.78" x2="332.655" y2="438.754" gradientUnits="userSpaceOnUse">
            <stop offset="0.02" stop-color="#FF7400"/>
            <stop offset="0.03" stop-color="#FE7900"/>
            <stop offset="0.07" stop-color="#FC8A00"/>
            <stop offset="0.557292" stop-color="#FB9500"/>
            <stop offset="0.94" stop-color="#FE7D00"/>
            <stop offset="1" stop-color="#FF7400"/>
        </linearGradient>
        <linearGradient id="paint17_linear_1634_7263" x1="339.415" y1="447.847" x2="328.175" y2="447.818" gradientUnits="userSpaceOnUse">
            <stop offset="0.02" stop-color="#FF7400"/>
            <stop offset="0.03" stop-color="#FE7900"/>
            <stop offset="0.07" stop-color="#FC8A00"/>
            <stop offset="0.557292" stop-color="#FB9500"/>
            <stop offset="0.94" stop-color="#FE7D00"/>
            <stop offset="1" stop-color="#FF7400"/>
        </linearGradient>
        <linearGradient id="paint18_linear_1634_7263" x1="335.61" y1="454.915" x2="327.778" y2="454.895" gradientUnits="userSpaceOnUse">
            <stop offset="0.02" stop-color="#FF7400"/>
            <stop offset="0.03" stop-color="#FE7900"/>
            <stop offset="0.07" stop-color="#FC8A00"/>
            <stop offset="0.557292" stop-color="#FB9500"/>
            <stop offset="0.94" stop-color="#FE7D00"/>
            <stop offset="1" stop-color="#FF7400"/>
        </linearGradient>
        <clipPath id="clip0_1634_7263">
            <rect width="470" height="530" fill="white"/>
        </clipPath>
    </defs>
</svg>
