
<!-- saved from url=(0014)about:internet -->
<svg width="32" height="32" viewBox="0 0 32 32" fill="none" xmlns="http://www.w3.org/2000/svg"><path fill-rule="evenodd" clip-rule="evenodd" d="M31.36 16.3637C31.36 15.2291 31.2582 14.1382 31.0691 13.0909H16V19.28H24.6109C24.24 21.28 23.1127 22.9746 21.4182 24.1091V28.1237H26.5891C29.6145 25.3382 31.36 21.2364 31.36 16.3637Z" fill="#4285F4"></path> <path fill-rule="evenodd" clip-rule="evenodd" d="M15.9996 32C20.3196 32 23.9414 30.5673 26.5887 28.1237L21.4178 24.1091C19.9851 25.0691 18.1523 25.6364 15.9996 25.6364C11.8323 25.6364 8.30505 22.8219 7.04687 19.04H1.70142V23.1855C4.33414 28.4146 9.74505 32 15.9996 32Z" fill="#34A853"></path> <path fill-rule="evenodd" clip-rule="evenodd" d="M7.04727 19.04C6.72727 18.08 6.54545 17.0546 6.54545 16C6.54545 14.9455 6.72727 13.92 7.04727 12.96V8.81458H1.70182C0.618182 10.9746 0 13.4182 0 16C0 18.5818 0.618182 21.0255 1.70182 23.1855L7.04727 19.04Z" fill="#FBBC05"></path> <path fill-rule="evenodd" clip-rule="evenodd" d="M15.9996 6.36364C18.3487 6.36364 20.4578 7.17091 22.116 8.75636L26.7051 4.16727C23.9341 1.58545 20.3123 0 15.9996 0C9.74505 0 4.33414 3.58545 1.70142 8.81455L7.04687 12.96C8.30505 9.17818 11.8323 6.36364 15.9996 6.36364Z" fill="#EA4335"></path></svg>