<?xml version="1.0" encoding="utf-8"?>
<!-- Generator: Adobe Illustrator 23.0.5, SVG Export Plug-In . SVG Version: 6.00 Build 0)  -->
<svg version="1.1" id="Capa_1" xmlns="http://www.w3.org/2000/svg" xmlns:xlink="http://www.w3.org/1999/xlink" x="0px" y="0px"
	 viewBox="0 0 96 96" style="enable-background:new 0 0 96 96;" xml:space="preserve">
<style type="text/css">
	.st0{fill:url(#SVGID_1_);}
	.st1{fill:url(#SVGID_2_);}
</style>
<g>
	<g>
		<linearGradient id="SVGID_1_" gradientUnits="userSpaceOnUse" x1="48" y1="101.2424" x2="48" y2="8.7303">
			<stop  offset="0" style="stop-color:#BBD532"/>
			<stop  offset="0.1033" style="stop-color:#C6C92E"/>
			<stop  offset="0.3192" style="stop-color:#DFAB26"/>
			<stop  offset="0.5228" style="stop-color:#F6871F"/>
			<stop  offset="0.7089" style="stop-color:#E77360"/>
			<stop  offset="1" style="stop-color:#D14B9B"/>
		</linearGradient>
		<path class="st0" d="M48,87.97C25.96,87.97,8.03,70.04,8.03,48C8.03,25.96,25.96,8.03,48,8.03c22.04,0,39.97,17.93,39.97,39.97
			C87.97,70.04,70.04,87.97,48,87.97z M48,15.03c-18.18,0-32.97,14.79-32.97,32.97S29.82,80.97,48,80.97
			c18.18,0,32.97-14.79,32.97-32.97S66.18,15.03,48,15.03z"/>
	</g>
	<linearGradient id="SVGID_2_" gradientUnits="userSpaceOnUse" x1="48.0001" y1="101.2424" x2="48.0001" y2="8.7302">
		<stop  offset="0" style="stop-color:#BBD532"/>
		<stop  offset="0.1033" style="stop-color:#C6C92E"/>
		<stop  offset="0.3192" style="stop-color:#DFAB26"/>
		<stop  offset="0.5228" style="stop-color:#F6871F"/>
		<stop  offset="0.7089" style="stop-color:#E77360"/>
		<stop  offset="1" style="stop-color:#D14B9B"/>
	</linearGradient>
	<path class="st1" d="M67.12,35.93c-1.22,0.55-2.61,0.89-3.94,1.11c0.63-0.11,1.53-1.24,1.9-1.7c0.56-0.7,1.02-1.5,1.29-2.36
		c0.03-0.07,0.05-0.15-0.01-0.2c-0.08-0.03-0.14-0.02-0.21,0.02c-1.47,0.79-3,1.36-4.62,1.77c-0.13,0.03-0.24,0-0.32-0.08
		c-0.13-0.15-0.26-0.3-0.4-0.41c-0.68-0.58-1.41-1.04-2.24-1.37c-1.08-0.44-2.27-0.63-3.44-0.55c-1.14,0.07-2.25,0.39-3.26,0.92
		c-1.01,0.53-1.91,1.26-2.63,2.15c-0.74,0.92-1.29,2-1.57,3.14c-0.27,1.11-0.25,2.2-0.08,3.32c0.02,0.19,0.01,0.21-0.16,0.19
		c-6.35-0.95-11.62-3.22-15.89-8.09c-0.19-0.21-0.29-0.21-0.44,0.02c-1.87,2.8-0.96,7.31,1.37,9.52c0.31,0.3,0.63,0.59,0.98,0.86
		c-0.13,0.03-1.68-0.14-3.07-0.86c-0.19-0.12-0.28-0.05-0.3,0.16c-0.02,0.3,0.01,0.58,0.05,0.91c0.36,2.84,2.33,5.47,5.02,6.49
		c0.32,0.13,0.67,0.25,1.02,0.31c-0.61,0.13-1.25,0.23-3.01,0.09c-0.22-0.04-0.3,0.07-0.22,0.28c1.32,3.61,4.18,4.68,6.32,5.29
		c0.29,0.05,0.57,0.05,0.86,0.12c-0.02,0.03-0.03,0.03-0.05,0.05c-0.71,1.08-3.17,1.89-4.31,2.29c-2.08,0.73-4.35,1.06-6.55,0.84
		c-0.35-0.05-0.43-0.05-0.52,0c-0.1,0.06-0.01,0.14,0.1,0.24c0.45,0.3,0.9,0.56,1.36,0.81c1.4,0.74,2.86,1.33,4.38,1.75
		c7.87,2.17,16.74,0.58,22.65-5.3c4.64-4.61,6.27-10.97,6.27-17.34c0-0.25,0.29-0.39,0.47-0.52c1.21-0.91,2.25-1.99,3.15-3.21
		c0.2-0.27,0.28-0.51,0.28-0.61c0-0.02,0-0.03,0-0.03C67.35,35.83,67.28,35.86,67.12,35.93z"/>
</g>
</svg>
