
<!-- saved from url=(0014)about:internet -->
<svg width="32" height="32" viewBox="0 0 32 32" fill="none" xmlns="http://www.w3.org/2000/svg"><path fill-rule="evenodd" clip-rule="evenodd" d="M4.7011 6H1.2003C0.20006 6 0 6.4708 0 6.9898C0 7.9169 1.18686 12.5148 5.5262 18.5959C8.4191 22.7488 12.4949 25 16.2038 25C18.4291 25 18.7044 24.5 18.7044 23.6388V20.5C18.7044 19.5 18.9152 19.3004 19.6198 19.3004C20.1391 19.3004 21.0292 19.56 23.1062 21.5623C25.4799 23.9354 25.8712 25 27.2063 25H30.7071C31.7074 25 32.2075 24.5 31.919 23.5133C31.6033 22.5299 30.47 21.103 28.9662 19.4117C28.1502 18.4476 26.9263 17.4094 26.5554 16.8902C26.0362 16.2228 26.1845 15.9261 26.5554 15.3329C26.5554 15.3329 30.8206 9.3259 31.2657 7.2866C31.4882 6.5449 31.2657 6 30.207 6H26.7062C25.8161 6 25.4057 6.4708 25.1831 6.9898C25.1831 6.9898 23.4029 11.3282 20.8809 14.1463C20.0649 14.962 19.694 15.2216 19.2489 15.2216C19.0264 15.2216 18.7043 14.962 18.7043 14.2205V7.2866C18.7043 6.3966 18.446 6 17.7041 6H12.2028C11.6466 6 11.312 6.413 11.312 6.8045C11.312 7.6481 12.573 7.8427 12.703 10.2158V15.37C12.703 16.5 12.4988 16.7049 12.0538 16.7049C10.867 16.7049 7.9801 12.3471 6.2679 7.3607C5.9324 6.3915 5.5958 6 4.7011 6Z" fill="#2787F5"></path></svg>